<?xml version="1.0" encoding="utf-8"?>
<!-- Generator: Adobe Illustrator 16.0.0, SVG Export Plug-In . SVG Version: 6.00 Build 0)  -->
<!DOCTYPE svg PUBLIC "-//W3C//DTD SVG 1.1//EN" "http://www.w3.org/Graphics/SVG/1.1/DTD/svg11.dtd">
<svg version="1.1"
	 id="svg2" sodipodi:docname="time.svg" inkscape:version="0.91 r13725" xmlns:dc="http://purl.org/dc/elements/1.1/" xmlns:cc="http://creativecommons.org/ns#" xmlns:rdf="http://www.w3.org/1999/02/22-rdf-syntax-ns#" xmlns:sodipodi="http://sodipodi.sourceforge.net/DTD/sodipodi-0.dtd" xmlns:svg="http://www.w3.org/2000/svg" xmlns:inkscape="http://www.inkscape.org/namespaces/inkscape"
	 xmlns="http://www.w3.org/2000/svg" xmlns:xlink="http://www.w3.org/1999/xlink" x="0px" y="0px" width="2309.54px"
	 height="1539.691px" viewBox="-810.635 -523.101 2309.54 1539.691" enable-background="new -810.635 -523.101 2309.54 1539.691"
	 xml:space="preserve">
<rect x="-810.635" y="-523.101" width="2309.54" height="1539.691"/>
<title  id="title4166">Time Magazine Logo</title>
<sodipodi:namedview  id="namedview9" fit-margin-right="20" inkscape:window-height="715" inkscape:pageopacity="0" inkscape:window-width="1366" inkscape:pageshadow="2" inkscape:window-x="-8" inkscape:window-maximized="1" inkscape:showpageshadow="false" inkscape:window-y="-8" inkscape:current-layer="svg2" fit-margin-bottom="20" inkscape:cx="1500" showgrid="false" pagecolor="#ffffff" objecttolerance="10" borderopacity="1" fit-margin-top="20" bordercolor="#666666" guidetolerance="10" inkscape:cy="471.60297" inkscape:zoom="0.26933333" gridtolerance="10" fit-margin-left="20">
	</sodipodi:namedview>
<g id="desktop">
	<g id="Fortune_dionami_desktop_1440px--" transform="translate(-68.000000, -14.000000)">
		<g id="logo" transform="translate(68.000000, 14.000000)">
			<polygon id="Fill-1_1_" fill="#FEFEFE" points="770.949,95.026 770.949,260.503 718.932,95.026 667.543,95.026 667.543,398.471 
				718.932,398.471 718.932,249.805 765.415,398.471 822.351,398.471 822.351,95.026 			"/>
			<polygon id="Fill-2" fill="#FEFEFE" points="-275.24,95.026 -322.352,95.026 -326.635,95.026 -326.635,398.471 -275.24,398.471 
				-275.24,268.386 -227.577,268.386 -227.577,216.983 -275.24,216.983 -275.24,146.422 -201.316,146.422 -201.316,95.026 			"/>
			<g id="Group-14" transform="translate(12.162602, 0.159902)">
				<path id="Fill-3_1_" fill="#FEFEFE" d="M-163.349,161.929v169.328c0,39.396,31.935,71.33,71.338,71.33l0,0
					c39.404,0,71.346-31.935,71.346-71.33V161.908c0-39.391-31.935-71.325-71.324-71.325h-0.021
					C-131.414,90.583-163.349,122.532-163.349,161.929 M-111.954,331.257V161.929c0-11.012,8.931-19.943,19.943-19.943h0.056
					c10.985,0,19.888,8.903,19.888,19.887v169.384c0,11.013-8.924,19.941-19.943,19.941
					C-103.023,351.198-111.954,342.269-111.954,331.257"/>
				<polygon id="Fill-5" fill="#FEFEFE" points="387.861,94.873 245.43,94.873 245.43,146.269 290.947,146.269 290.947,398.311 
					342.343,398.311 342.343,146.269 387.861,146.269 				"/>
				<path id="Fill-7" fill="#FEFEFE" d="M538.419,94.873v236.384c0,11.013-8.93,19.941-19.942,19.941
					c-11.026,0-19.943-8.929-19.943-19.941V94.873h-51.401v236.384c0,39.396,31.948,71.33,71.345,71.33
					c39.397,0,71.346-31.935,71.346-71.33V94.873H538.419z"/>
				<g id="Group-11" transform="translate(72.796748, 0.178862)">
					<polygon id="Fill-9" fill="#FEFEFE" points="804.613,94.694 804.613,398.132 929.945,398.132 929.945,346.729 856.016,346.729 
						856.016,268.047 903.673,268.047 903.673,216.644 856.016,216.644 856.016,146.09 929.945,146.09 929.945,94.694 					"/>
				</g>
				<path id="Fill-12" fill="#FEFEFE" d="M196.508,398.311h-53.101l-37.992-144.089c0,0,32.675-5.868,32.675-40.639v-47.42
					c0-10.991-8.902-19.894-19.895-19.894H98.441v252.042H47.039V94.866h71.129c38.328,0,69.508,30.266,71.163,68.18h0.161v49.607
					h-0.161c0,29.935-9.79,51.548-27.728,65.299L196.508,398.311z"/>
			</g>
		</g>
	</g>
</g>
</svg>
