<?xml version="1.0" encoding="utf-8"?>
<!-- Generator: Adobe Illustrator 16.0.0, SVG Export Plug-In . SVG Version: 6.00 Build 0)  -->
<!DOCTYPE svg PUBLIC "-//W3C//DTD SVG 1.1//EN" "http://www.w3.org/Graphics/SVG/1.1/DTD/svg11.dtd">
<svg version="1.1" id="Layer_1" xmlns="http://www.w3.org/2000/svg" xmlns:xlink="http://www.w3.org/1999/xlink" x="0px" y="0px"
	 width="1168.339px" height="778.895px" viewBox="-182.615 149.602 1168.339 778.895"
	 enable-background="new -182.615 149.602 1168.339 778.895" xml:space="preserve">
<rect x="-182.615" y="149.602" fill="#D8EDF0" width="1168.339" height="778.895"/>
<title>RF_Logo1-2 copy</title>
<g id="v1">
	<path d="M269.934,528.67h33.413c14.369,0,30.137,2.664,30.137,20.203v1.331c0,11.52-12.252,19.976-23.465,19.976
		c5.753,2.117,11.319,9.322,16.7,17.738c6.046,9.606,12.088,15.612,18.125,18.019v0.332h-3.609
		c-3.695-0.03-7.369-0.563-10.919-1.584c-3.067-0.879-5.951-2.305-8.51-4.209c-2.222-1.646-4.275-3.51-6.126-5.565
		c-1.816-2.083-3.459-4.31-4.914-6.66c-3.862-6.111-7.178-18.07-16.62-18.07h-3.688v30.217l7.644,4.447v0.32h-28.166v-0.32
		l7.631-4.447v-66.945l-7.631-4.422V528.67z M290.562,531.334v36.089h9.149c10.76,0,20.109-6.564,20.109-15.98v-1.531
		c0-10.8-5.5-18.645-17.579-18.645L290.562,531.334z"/>
	<path d="M168.936,528.697h35.051c22.466,0,26.195,13.249,26.195,17.911v1.198c0,11.239-7.684,15.248-11.24,16.779
		c8.856,2.277,16.26,9.256,16.26,19.283v1.332c0,11.533-10.654,19.976-30.35,19.976h-35.956v-0.319l7.63-4.448v-66.932l-7.591-4.448
		V528.697z M189.565,531.36v32.121h14.196c10.001,0,13.543-9.616,13.543-15.901v-1.411c0-8.204-3.769-14.796-14.422-14.796
		L189.565,531.36z M189.565,566.157v32.574c-0.262,1.791,0.977,3.454,2.767,3.715c0.314,0.046,0.634,0.046,0.948,0h11.493
		c12.345,0,16.233-9.068,16.233-17.165v-1.519c0-7.217-1.851-17.592-15.581-17.592L189.565,566.157z"/>
	<polygon points="822.851,544.798 822.518,544.798 813.022,531.373 794.351,531.373 794.351,600.356 801.996,604.805 
		801.996,605.138 773.816,605.138 773.816,604.805 781.367,600.356 781.367,531.373 762.804,531.373 753.188,544.798 
		752.855,544.798 752.855,528.697 822.851,528.697 	"/>
	<polygon points="40.093,541.202 39.76,541.202 33.221,531.373 0.793,531.373 0.793,564.985 24.698,564.985 31.13,556.462 
		31.463,556.462 31.463,576.173 31.13,576.173 24.698,567.649 0.793,567.649 0.793,600.356 11.167,604.805 11.167,605.138 
		-19.742,605.138 -19.742,604.805 -12.111,600.356 -12.111,533.478 -19.742,529.017 -19.742,528.697 40.093,528.697 	"/>
	<path d="M580.89,528.697l30.763,71.659l6.659,4.448v0.319h-29.298v-0.333l8.604-4.447l-9.602-22.546h-29.804l-9.322,22.546
		l7.337,4.446v0.32h-18.111v-0.32l6.565-4.446l29.79-71.66L580.89,528.697z M559.516,574.668h27.154l-13.81-32.322L559.516,574.668z
		"/>
	<path d="M103.402,528.697l30.736,71.659l6.659,4.448v0.319H111.5v-0.334l8.603-4.446l-9.602-22.547H80.71l-9.322,22.547
		l7.337,4.446v0.319H60.588v-0.319l6.565-4.446l29.791-71.66L103.402,528.697z M82.015,574.668h27.154l-13.81-32.322L82.015,574.668
		z"/>
	<polygon points="402.719,529.017 395.075,533.478 395.075,600.356 402.719,604.805 402.719,605.138 374.553,605.138 
		374.553,604.805 382.197,600.356 382.197,533.478 374.553,529.017 374.553,528.697 402.719,528.697 	"/>
	<polygon points="510.243,529.017 501.188,533.478 476.696,559.18 509.217,600.356 515.21,604.805 515.21,605.138 484.873,605.138 
		484.873,604.805 492.943,600.356 467.774,568.488 459.77,576.824 459.77,600.356 467.414,604.805 467.414,605.138 439.235,605.138 
		439.235,604.805 446.879,600.409 446.879,533.478 439.235,529.017 439.235,528.697 467.414,528.697 467.414,529.017 
		459.77,533.478 459.77,571.725 496.219,533.478 490.32,529.017 490.32,528.697 510.243,528.697 	"/>
	<polygon points="725.302,529.017 717.777,533.478 717.777,605.138 709.921,605.138 654.813,533.478 654.813,600.356 
		662.231,604.805 662.231,605.138 643.309,605.138 643.309,604.805 650.952,600.356 650.952,533.478 643.309,529.017 
		643.309,528.697 666.374,528.697 713.875,590.675 713.875,533.519 706.457,529.029 706.457,528.697 725.302,528.697 	"/>
	<path d="M109.941,404.021h33.413c14.37,0,30.137,2.663,30.137,20.202v1.332c0,11.52-12.251,19.976-23.465,19.976
		c5.753,2.117,11.32,9.322,16.7,17.738c6.037,9.562,12.074,15.546,18.111,17.952v0.332h-3.609c-3.695-0.03-7.369-0.562-10.92-1.585
		c-3.062-0.88-5.94-2.306-8.496-4.208c-2.222-1.646-4.275-3.511-6.126-5.566c-1.816-2.082-3.459-4.31-4.914-6.659
		c-3.861-6.112-7.178-18.07-16.62-18.07h-3.689v30.217l7.644,4.447v0.32h-28.166v-0.32l7.644-4.447v-66.88l-7.631-4.448
		L109.941,404.021z M130.57,406.685v36.09h9.148c10.76,0,20.109-6.565,20.109-15.98v-1.479c0-10.801-5.5-18.644-17.579-18.644
		L130.57,406.685z"/>
	<path d="M523.946,404.021h33.413c14.368,0,30.137,2.663,30.137,20.202v1.332c0,11.52-12.253,19.976-23.466,19.976
		c5.754,2.117,11.32,9.322,16.7,17.738c6.046,9.606,12.088,15.611,18.125,18.019v0.333h-3.609c-3.694-0.031-7.369-0.563-10.92-1.586
		c-3.071-0.898-5.954-2.347-8.51-4.274c-2.222-1.646-4.275-3.511-6.126-5.566c-1.816-2.082-3.46-4.31-4.913-6.659
		c-3.863-6.112-7.179-18.07-16.621-18.07h-3.688v30.217l7.645,4.447v0.32h-28.166v-0.32l7.631-4.447v-66.88l-7.631-4.448V404.021z
		 M544.574,406.685v36.09h9.149c10.76,0,20.108-6.565,20.108-15.98v-1.479c0-10.8-5.5-18.644-17.578-18.644L544.574,406.685z"/>
	<path d="M251.316,402.929c10.83-0.255,21.364,3.544,29.538,10.654c8.186,7.103,12.278,16.385,12.278,27.847v1.571
		c0,11.435-4.093,20.717-12.278,27.846c-17.063,14.266-41.892,14.266-58.956,0c-8.186-7.103-12.278-16.385-12.278-27.846v-1.532
		c0-11.435,4.092-20.717,12.278-27.846C230.027,406.513,240.52,402.699,251.316,402.929z M251.316,405.593
		c-17.405,0-27.406,11.146-27.406,35.65v1.957c0,24.678,10.161,35.65,27.406,35.65s27.526-10.986,27.526-35.65v-1.943
		C278.843,416.739,268.722,405.593,251.316,405.593z"/>
	<path d="M324.068,404.021h35.05c22.466,0,26.195,13.251,26.195,17.911v1.199c0,11.239-7.684,15.248-11.24,16.779
		c8.856,2.277,16.261,9.255,16.261,19.283v1.332c0,11.532-10.654,19.977-30.35,19.977h-35.956v-0.32l7.631-4.448v-66.933
		l-7.631-4.448L324.068,404.021z M344.696,406.685v32.121h14.197c10,0,13.543-9.614,13.543-15.9v-1.412
		c0-8.203-3.769-14.795-14.422-14.795L344.696,406.685z M344.696,441.482v32.588c-0.262,1.789,0.978,3.453,2.768,3.715
		c0.314,0.047,0.633,0.047,0.948,0h11.545c12.346,0,16.234-9.068,16.234-17.166v-1.531c0-7.218-1.851-17.592-15.581-17.592
		L344.696,441.482z"/>
	<path d="M486.844,416.513h-0.373l-6.552-9.828h-32.934v32.88h24.464l6.446-8.522h0.319v19.603h-0.319l-6.446-8.402h-24.464v31.828
		c-0.261,1.789,0.978,3.453,2.768,3.715c0.314,0.047,0.634,0.047,0.948,0h29.804l8.084-10.92h0.333v13.584h-62.458v-0.32
		l7.631-4.447v-66.88l-7.631-4.448v-0.319h60.38V416.513z"/>
	<polygon points="693.182,420.121 692.848,420.121 683.339,406.685 664.669,406.685 664.669,475.682 672.312,480.129 
		672.312,480.449 644.146,480.449 644.146,480.129 651.685,475.682 651.685,406.685 633.12,406.685 623.506,420.121 
		623.172,420.121 623.172,404.021 693.182,404.021 	"/>
	<path d="M364.206,674.88v-21.494h2.544v21.494H364.206z"/>
	<path d="M397.606,653.386v21.494h-2.544l-11.24-17.312v17.312h-2.557v-21.494h2.544l11.239,17.312v-17.312H397.606z"/>
	<path d="M422.895,668.953l2.145,1.212c-1.399,3.249-4.703,5.254-8.23,4.994c-2.671,0.049-5.229-1.081-6.991-3.09
		c-3.718-4.613-3.718-11.194,0-15.808c1.748-2.032,4.31-3.184,6.991-3.143c3.519-0.191,6.791,1.805,8.23,5.021l-2.145,1.238
		c-0.949-2.51-3.406-4.122-6.085-3.995c-2.024-0.012-3.939,0.919-5.18,2.517c-1.407,1.767-2.14,3.977-2.065,6.233
		c-0.08,2.278,0.651,4.511,2.065,6.299c1.25,1.58,3.166,2.485,5.18,2.45C419.482,673.058,421.955,671.462,422.895,668.953z"/>
	<path d="M438.916,674.88h-2.876v-3.357h2.876V674.88z"/>
</g>
</svg>
