<?xml version="1.0" encoding="utf-8"?>
<!-- Generator: Adobe Illustrator 16.0.0, SVG Export Plug-In . SVG Version: 6.00 Build 0)  -->
<!DOCTYPE svg PUBLIC "-//W3C//DTD SVG 1.1//EN" "http://www.w3.org/Graphics/SVG/1.1/DTD/svg11.dtd">
<svg version="1.1" id="Layer_1" xmlns:sketch="http://www.bohemiancoding.com/sketch/ns"
	 xmlns="http://www.w3.org/2000/svg" xmlns:xlink="http://www.w3.org/1999/xlink" x="0px" y="0px" width="175px" height="99px"
	 viewBox="0 0 175 99" enable-background="new 0 0 175 99" xml:space="preserve">
<rect fill="#33C8FF" width="175" height="99"/>
<title>RoomZoom logo</title>
<desc>Created with Sketch.</desc>
<g id="Full-Site" sketch:type="MSPage">
	<g id="_x30_0-Home" transform="translate(-633.000000, -107.000000)" sketch:type="MSArtboardGroup">
		<g id="RoomZoom-logo" transform="translate(633.000000, 107.000000)" sketch:type="MSLayerGroup">
			<path id="Shape" sketch:type="MSShapeGroup" fill="#FFFFFF" d="M156.256,60.763h-0.113c-0.17,0-0.283,0.113-0.34,0.113
				s-0.057,0.056-0.057,0.056c-0.736,0.897-1.416,1.402-1.983,1.515c-1.076,0.224-1.927-2.131-1.927-4.937
				c0-2.973,0.511-7.181,1.644-9.929c0.058-0.168,0.058-0.28,0.058-0.393c0-0.841-1.758-1.571-2.438-1.571h-0.17
				c-0.227,0.056-0.396,0.168-0.566,0.336c-2.04,2.3-3.797,7.293-5.156,11.332c-0.227,0.617-0.396,1.179-0.623,1.739
				c0.113-1.627,0.113-3.927,0.113-7.236c0-1.29-0.228-2.973-2.153-2.973c-0.283,0-0.567,0.056-0.906,0.112
				c-1.36,0.28-2.834,2.973-4.308,8.078V56.5c0-3.927-1.473-5.722-4.306-5.16c-1.134,0.224-2.38,0.785-3.683,1.402
				c-0.171,0.056-0.341,0.168-0.567,0.225c-0.906-1.459-2.437-2.302-4.307-2.302c-0.396,0-0.793,0.057-1.246,0.113
				c-2.437,0.449-4.931,2.356-4.931,4.712c0,0.617,0.228,1.122,0.624,1.515c0.624,0.561,1.587,0.729,2.891,0.448
				c0.906-0.168,1.869-0.448,3.003-0.785c0.396,1.122,0.622,2.524,0.622,4.095c0,5.555-2.38,9.593-4.022,9.874h-0.17
				c-0.85,0-1.757-1.29-1.757-4.88c0-2.75,0.737-5.891,1.7-7.349c0.057-0.113,0.057-0.281,0-0.394s-0.227-0.168-0.34-0.112
				c-4.137,1.066-5.609,4.824-5.609,7.741c0,2.188,0.51,3.983,1.417,5.218c0.906,1.178,2.096,1.739,3.569,1.739
				c0.34,0,0.68-0.057,1.02-0.113c4.25-0.785,8.556-6.283,8.556-15.146c0-1.01-0.113-1.852-0.282-2.468
				c1.303-0.506,2.323-0.898,3.003-1.011h0.113c0.396,0,0.793,0.786,0.793,3.086c0,2.973-0.68,7.292-1.076,9.648
				c-0.171,0.897-0.227,1.458-0.227,1.738c0.056,1.459,1.587,2.076,2.832,1.852c1.134-0.225,1.757-1.01,1.757-2.076
				c1.077-8.862,2.947-14.023,3.74-14.696c0.113,0.393,0.227,1.515,0.227,3.814c0,3.702-0.283,8.808-0.51,10.546v0.112
				c0,0.28,0.113,0.504,0.396,0.617c0.51,0.224,1.644,0.056,2.606-0.113c0.566-0.111,0.964-0.447,1.021-0.896
				c0.34-1.122,0.793-2.749,1.246-4.432c0.68-2.581,1.416-5.498,2.153-7.461c0,0.561-0.058,1.179-0.058,1.851
				c0,2.413,0.228,4.264,0.624,5.666c0.737,2.356,2.153,3.365,4.136,3.029c2.154-0.392,4.25-2.861,4.25-4.937
				C156.71,60.932,156.539,60.763,156.256,60.763L156.256,60.763z M123.958,54.985c-0.453,0.112-0.907,0.225-1.417,0.337
				c-0.169,0.056-0.283,0.056-0.453,0.056c-0.566,0-0.793-0.224-0.793-0.729c0-0.394,0.227-0.617,0.623-0.674h0.227
				C122.712,53.919,123.392,54.312,123.958,54.985L123.958,54.985z"/>
			<path id="Shape_1_" sketch:type="MSShapeGroup" fill="#FFFFFF" d="M113.531,57.342c-0.679-2.3-2.549-3.703-4.929-3.703
				c-0.396,0-0.794,0.057-1.19,0.112c-2.437,0.448-4.929,2.356-4.929,4.713c0,0.616,0.226,1.121,0.622,1.515
				c0.624,0.561,1.587,0.729,2.89,0.448c0.907-0.168,1.87-0.448,3.004-0.786c0.396,1.122,0.624,2.525,0.624,4.096
				c0,5.554-2.381,9.593-4.024,9.873h-0.17c-0.85,0-1.756-1.29-1.756-4.881c0-2.748,0.736-5.89,1.7-7.349
				c0.056-0.112,0.056-0.28,0-0.393c-0.057-0.111-0.227-0.168-0.341-0.111c-4.136,1.066-5.609,4.824-5.609,7.741
				c0,5.16,2.606,7.012,4.986,7.012c0.341,0,0.68-0.056,1.02-0.112c4.25-0.841,8.557-6.282,8.557-15.201
				c0-0.898-0.113-1.796-0.396-2.75C113.589,57.51,113.531,57.453,113.531,57.342L113.531,57.342z M108.036,57.902
				c-0.454,0.112-0.906,0.225-1.417,0.337c-0.793,0.169-1.246-0.056-1.246-0.674c0-0.336,0.226-0.616,0.622-0.673h0.228
				C106.846,56.837,107.469,57.229,108.036,57.902L108.036,57.902z"/>
			<path id="Shape_2_" sketch:type="MSShapeGroup" fill="#FFFFFF" d="M63.895,45.056c-0.227,0.056-0.34,0.225-0.396,0.225
				c-1.474,1.739-4.137,3.085-7.196,3.646c-0.566,0.112-1.077,0.168-1.644,0.168c-4.08,0-7.026-3.029-10.086-6.283
				c-1.247-1.29-2.549-2.692-3.966-3.814C53.129,36.586,58.739,28.9,58.739,22.393c0-5.666-4.477-11.78-14.279-11.78
				c-1.586,0-3.287,0.168-5.043,0.504c-11.729,2.188-20.795,11.051-20.795,17.278c0,1.683,0.68,3.029,1.983,3.982
				c2.04,1.458,5.496,1.907,10.143,1.234v2.356c-0.454,0-0.85,0.056-1.247,0.112c-2.097,0.393-2.833,1.347-2.833,2.132
				c0,0.785,0.397,1.346,1.19,1.683c0.68,0.28,1.643,0.449,2.833,0.393c-0.057,5.778-0.227,11.052-0.51,15.707v0.056
				c0,0.842,1.87,3.703,3.343,3.703h0.227c0.227-0.057,0.454-0.169,0.624-0.394c0.057-0.056,0.057-0.111,0.057-0.224
				c0-7.012,0.113-13.52,0.34-19.297l1.247-0.225c0.68,0.561,1.53,2.076,2.493,3.759c2.947,5.048,7.31,12.734,14.902,12.734l0,0
				c0.737,0,1.473-0.057,2.21-0.225c4.59-0.841,7.65-4.543,8.783-10.377C64.405,45.056,64.122,45,63.895,45.056L63.895,45.056z
				 M35.167,32.547c0.907-0.281,2.153-0.785,3.173-1.515c0.114-0.056,0.17-0.225,0.114-0.337l-0.057-0.224
				c0-0.112-0.113-0.168-0.17-0.224c-0.113-0.056-0.227-0.056-0.283,0c0,0-1.133,0.504-2.663,0.954
				c0.283-4.151,0.623-6.788,0.793-8.415c0.113-1.01,0.169-1.627,0.169-2.02c0-0.225-0.169-0.449-0.623-0.449h-0.17
				c-0.169,0.056-3.569,0.841-4.079,1.01c-0.227,0.056-0.624,0.336-0.624,0.897c-0.057,0.336-0.057,0.954-0.057,2.131v2.749
				c0,1.402,0,3.029,0.057,4.769c-4.93,0.336-7.933-1.347-7.933-4.375c0-4.376,6.176-10.042,16.545-12.005
				c1.02-0.168,2.04-0.28,3.003-0.28c6.8,0,10.37,4.656,10.37,9.256c0,4.432-3.457,10.266-13.203,12.061
				c-0.566,0.112-1.247,0.224-2.04,0.336c-0.907-0.449-1.644-0.786-2.494-0.954L35.167,32.547L35.167,32.547z"/>
			<path id="Shape_3_" sketch:type="MSShapeGroup" fill="#FFFFFF" d="M78.627,39.896c0.34,0,0.68-0.056,1.02-0.112
				c4.25-0.785,8.557-6.283,8.557-15.202c0-1.01-0.113-1.851-0.284-2.468c1.303-0.505,2.267-0.897,3.002-1.01h0.114
				c0.396,0,0.793,0.841,0.793,3.142c0,3.029-0.68,7.349-1.077,9.648c-0.112,0.897-0.227,1.458-0.227,1.739
				c0.058,1.458,1.587,2.075,2.834,1.851c1.133-0.224,1.756-1.01,1.756-2.076c1.077-8.919,2.946-14.024,3.739-14.697
				c0.114,0.393,0.228,1.515,0.228,3.814c0,3.703-0.283,8.807-0.453,10.546v0.112c0,0.281,0.113,0.505,0.396,0.617
				c0.51,0.224,1.587,0.056,2.606-0.112c0.566-0.112,0.963-0.449,1.02-0.898c0.34-1.122,0.794-2.749,1.247-4.432
				c0.68-2.636,1.417-5.497,2.153-7.46c0,0.561-0.058,1.178-0.058,1.851c0,2.412,0.228,4.319,0.624,5.722
				c0.623,2.076,1.756,3.085,3.343,3.085l0,0c0.227,0,0.511,0,0.737-0.056c2.153-0.393,4.249-2.861,4.249-4.937
				c0-0.28-0.169-0.449-0.453-0.449h-0.113c-0.17,0.056-0.283,0.112-0.34,0.112s-0.057,0.056-0.057,0.056
				c-0.736,0.897-1.417,1.402-1.983,1.514c-1.076,0.225-1.926-2.131-1.926-4.936c0-2.974,0.51-7.236,1.643-9.985
				c0.057-0.168,0.057-0.281,0.057-0.393c0-0.841-1.756-1.57-2.437-1.57h-0.17c-0.227,0.056-0.397,0.168-0.566,0.336
				c-2.04,2.3-3.797,7.292-5.156,11.332c-0.228,0.617-0.397,1.178-0.624,1.739c0.114-1.683,0.114-3.927,0.114-7.236
				c0-1.402-0.228-2.973-2.211-2.973c-0.283,0-0.565,0.056-0.85,0.112c-1.359,0.28-2.833,2.973-4.307,8.078v-0.504
				c0-3.927-1.474-5.722-4.306-5.217c-1.134,0.224-2.38,0.785-3.74,1.402c-0.17,0.056-0.34,0.168-0.566,0.225
				c-0.906-1.515-2.437-2.3-4.307-2.3c-0.396,0-0.793,0.056-1.19,0.112c-2.437,0.449-4.929,2.356-4.929,4.712
				c0,0.617,0.227,1.122,0.623,1.515c0.624,0.561,1.586,0.729,2.89,0.505c0.907-0.168,1.87-0.449,3.003-0.785
				c0.397,1.122,0.624,2.524,0.624,4.095c0,5.554-2.38,9.592-4.023,9.873c-0.907,0.169-1.926-1.009-1.926-4.88
				c0-2.749,0.736-5.891,1.7-7.349c0.057-0.112,0.057-0.281,0-0.393c-0.057-0.112-0.227-0.168-0.34-0.112
				c-4.136,1.065-5.609,4.824-5.609,7.741c0,2.188,0.51,4.039,1.417,5.217C75.964,39.278,77.211,39.896,78.627,39.896L78.627,39.896
				z M82.254,22.169c-0.453,0.112-0.906,0.224-1.417,0.336c-0.17,0.056-0.283,0.056-0.453,0.056l0,0
				c-0.567,0-0.793-0.224-0.793-0.729c0-0.392,0.227-0.617,0.623-0.673h0.227C81.064,21.103,81.688,21.496,82.254,22.169
				L82.254,22.169z"/>
			<path id="Shape_4_" sketch:type="MSShapeGroup" fill="#FFFFFF" d="M71.941,25.366c0-0.112-0.056-0.168-0.056-0.28
				c-0.68-2.3-2.606-3.758-4.986-3.758c-0.397,0-0.793,0.056-1.19,0.112c-2.437,0.448-4.93,2.356-4.93,4.712
				c0,0.617,0.227,1.122,0.624,1.515c0.623,0.561,1.586,0.729,2.89,0.504c0.906-0.168,1.87-0.448,3.003-0.785
				c0.396,1.122,0.623,2.524,0.623,4.095c0,5.61-2.38,9.593-3.966,9.929h-0.17c-0.85,0-1.757-1.29-1.757-4.88
				c0-2.749,0.737-5.89,1.7-7.349c0.057-0.112,0.057-0.281,0-0.393c-0.057-0.112-0.227-0.168-0.34-0.112
				c-4.136,1.065-5.609,4.824-5.609,7.741c0,5.161,2.606,7.012,5.043,7.012c0.34,0,0.68-0.056,1.02-0.112
				c4.25-0.785,8.556-6.283,8.556-15.202C72.338,27.217,72.225,26.32,71.941,25.366L71.941,25.366z M66.388,25.647
				c-0.453,0.112-0.963,0.225-1.417,0.336c-0.17,0.056-0.283,0.056-0.453,0.056c-0.567,0-0.793-0.224-0.793-0.729
				c0-0.392,0.227-0.617,0.623-0.673h0.227C65.142,24.581,65.822,24.974,66.388,25.647L66.388,25.647z"/>
			<path id="Shape_5_" sketch:type="MSShapeGroup" fill="#FFFFFF" d="M74.151,80.678c6.573-9.032,30.484-35.285,36.207-36.351
				c0.341-0.056,0.567-0.337,0.567-0.729c0-2.244-1.812-3.422-5.327-3.422c-1.643,0-3.683,0.225-6.232,0.729
				c-3.456,0.617-7.196,1.627-10.823,2.581c-3.116,0.785-6.006,1.57-8.329,2.02c-1.303,0.224-2.323,0.392-3.06,0.392
				c-1.417,0-1.417-0.448-1.417-0.617c0-0.393,0.17-0.617,0.396-1.01l0.113-0.168c0.057-0.056,0.057-0.112,0.057-0.168
				c0-0.28-0.17-0.448-0.34-0.561l-0.113-0.056c-0.17-0.168-0.51-0.225-0.737-0.168c-0.113,0-0.227,0.056-0.283,0.112
				c-2.097,0.897-3.57,2.805-3.57,4.6c0,2.804,1.757,4.207,5.156,4.207c1.133,0,2.494-0.168,4.08-0.448
				c3.513-0.674,7.707-1.964,11.729-3.254c4.08-1.29,7.877-2.469,11.106-3.085c0.396-0.056,0.736-0.112,1.076-0.168
				c-0.113,0-0.283,0.168-0.34,0.225c-0.113,0.112-0.227,0.168-0.34,0.28c-0.566,0.393-1.077,0.786-1.587,1.234
				c-0.623,0.505-1.189,1.01-1.813,1.458c-0.623,0.561-1.303,1.065-1.926,1.683c-0.68,0.616-1.36,1.234-2.04,1.851
				c-0.681,0.673-1.416,1.291-2.097,1.964c-0.736,0.673-1.474,1.402-2.21,2.132c-0.737,0.729-1.473,1.458-2.267,2.188
				c-0.736,0.729-1.474,1.458-2.267,2.244c-0.736,0.785-1.53,1.571-2.266,2.299c-0.737,0.786-1.474,1.516-2.21,2.301
				c-0.736,0.786-1.473,1.514-2.209,2.3c-0.68,0.729-1.417,1.515-2.097,2.301c-0.68,0.728-1.36,1.402-1.983,2.131
				c-1.36,1.459-2.664,2.917-3.966,4.376c-1.36,1.458-2.606,2.916-3.854,4.432c-0.85,1.066-1.757,2.075-2.55,3.141
				c-0.453,0.617-1.36,1.516-1.303,2.356c0,0.225,0.113,0.505,0.34,0.729c0.51,0.673,1.586,1.289,2.209,1.458
				c1.303,0.394,2.55-0.841,3.626-1.401c6.629-3.31,14.166-0.45,21.022,0.336c2.21,0.28,4.42,0.393,6.63,0.225
				c2.833-0.169,5.666-0.898,8.159-2.3c0.68-0.394,1.303-0.786,1.927-1.234c0.907-0.673,1.7-1.402,2.437-2.188
				c0.736-0.842,1.36-1.796,1.757-2.861c0.17-0.448,0.227-0.897,0.227-1.403c0.057-1.009-1.304-0.111-1.644,0.113
				c-0.963,0.562-2.04,1.009-3.116,1.346c-1.077,0.393-2.153,0.729-3.286,0.898c-1.134,0.225-2.268,0.392-3.399,0.505
				c-1.135,0.111-2.268,0.111-3.4,0.167h-0.396c-8.33-0.056-16.433-2.188-24.479,0.955L74.151,80.678L74.151,80.678z"/>
		</g>
	</g>
</g>
</svg>
