<?xml version="1.0" encoding="utf-8"?>
<!-- Generator: Adobe Illustrator 16.0.0, SVG Export Plug-In . SVG Version: 6.00 Build 0)  -->
<!DOCTYPE svg PUBLIC "-//W3C//DTD SVG 1.1//EN" "http://www.w3.org/Graphics/SVG/1.1/DTD/svg11.dtd">
<svg version="1.1" id="Layer_1" xmlns:sketch="http://www.bohemiancoding.com/sketch/ns"
	 xmlns="http://www.w3.org/2000/svg" xmlns:xlink="http://www.w3.org/1999/xlink" x="0px" y="0px" width="179.973px"
	 height="119.981px" viewBox="-3.147 183.635 179.973 119.981" enable-background="new -3.147 183.635 179.973 119.981"
	 xml:space="preserve">
<rect x="-3.147" y="183.635" fill="#33C8FF" width="179.973" height="119.981"/>
<title>RoomZoom logo</title>
<desc>Created with Sketch.</desc>
<g id="Full-Site" sketch:type="MSPage">
	<g id="_x30_0-Home" transform="translate(-633.000000, -107.000000)" sketch:type="MSArtboardGroup">
		<g id="RoomZoom-logo" transform="translate(633.000000, 107.000000)" sketch:type="MSLayerGroup">
			<path id="Shape" sketch:type="MSShapeGroup" fill="#FFFFFF" d="M138.873,252.207h-0.086c-0.129,0-0.215,0.086-0.258,0.086
				s-0.043,0.042-0.043,0.042c-0.559,0.681-1.073,1.063-1.503,1.148c-0.815,0.17-1.461-1.614-1.461-3.742
				c0-2.254,0.388-5.444,1.245-7.527c0.044-0.127,0.044-0.213,0.044-0.297c0-0.639-1.332-1.19-1.848-1.19h-0.128
				c-0.173,0.042-0.302,0.127-0.43,0.254c-1.547,1.745-2.879,5.529-3.908,8.591c-0.173,0.468-0.301,0.894-0.474,1.318
				c0.086-1.233,0.086-2.977,0.086-5.485c0-0.979-0.171-2.254-1.632-2.254c-0.215,0-0.43,0.043-0.688,0.085
				c-1.031,0.212-2.148,2.254-3.265,6.123v-0.383c0-2.977-1.116-4.337-3.264-3.912c-0.86,0.17-1.805,0.597-2.792,1.063
				c-0.13,0.043-0.259,0.128-0.43,0.171c-0.688-1.106-1.848-1.745-3.266-1.745c-0.3,0-0.601,0.043-0.944,0.086
				c-1.847,0.341-3.737,1.787-3.737,3.571c0,0.469,0.172,0.851,0.473,1.148c0.474,0.425,1.203,0.552,2.191,0.34
				c0.687-0.127,1.417-0.34,2.276-0.596c0.3,0.851,0.472,1.915,0.472,3.104c0,4.211-1.805,7.272-3.049,7.484h-0.129
				c-0.645,0-1.332-0.977-1.332-3.698c0-2.085,0.559-4.466,1.288-5.57c0.044-0.086,0.044-0.213,0-0.299
				c-0.043-0.085-0.171-0.128-0.257-0.085c-3.137,0.809-4.253,3.657-4.253,5.868c0,1.658,0.387,3.02,1.074,3.955
				c0.688,0.894,1.589,1.318,2.706,1.318c0.259,0,0.516-0.043,0.773-0.086c3.222-0.596,6.484-4.763,6.484-11.48
				c0-0.766-0.086-1.404-0.213-1.871c0.987-0.384,1.762-0.681,2.276-0.766h0.085c0.302,0,0.602,0.596,0.602,2.339
				c0,2.253-0.516,5.527-0.815,7.313c-0.13,0.681-0.172,1.106-0.172,1.318c0.042,1.105,1.203,1.574,2.146,1.404
				c0.859-0.171,1.332-0.766,1.332-1.574c0.817-6.718,2.234-10.631,2.836-11.142c0.085,0.298,0.171,1.149,0.171,2.893
				c0,2.806-0.214,6.676-0.387,7.994v0.085c0,0.213,0.086,0.382,0.301,0.467c0.387,0.17,1.246,0.043,1.976-0.085
				c0.431-0.084,0.731-0.339,0.774-0.68c0.258-0.851,0.601-2.084,0.944-3.359c0.515-1.957,1.073-4.168,1.632-5.656
				c0,0.426-0.043,0.894-0.043,1.403c0,1.829,0.172,3.232,0.473,4.295c0.56,1.786,1.633,2.551,3.136,2.297
				c1.633-0.297,3.221-2.169,3.221-3.742C139.217,252.335,139.087,252.207,138.873,252.207L138.873,252.207z M114.39,247.828
				c-0.343,0.085-0.688,0.171-1.074,0.255c-0.128,0.042-0.216,0.042-0.344,0.042c-0.429,0-0.601-0.169-0.601-0.552
				c0-0.298,0.172-0.468,0.472-0.511h0.172C113.444,247.02,113.96,247.317,114.39,247.828L114.39,247.828z"/>
			<path id="Shape_1_" sketch:type="MSShapeGroup" fill="#FFFFFF" d="M106.485,249.614c-0.515-1.743-1.932-2.808-3.736-2.808
				c-0.301,0-0.602,0.043-0.902,0.085c-1.847,0.341-3.736,1.787-3.736,3.573c0,0.467,0.171,0.85,0.472,1.147
				c0.474,0.426,1.202,0.553,2.19,0.34c0.688-0.127,1.418-0.34,2.277-0.596c0.301,0.851,0.472,1.915,0.472,3.105
				c0,4.21-1.804,7.271-3.049,7.483h-0.13c-0.644,0-1.331-0.977-1.331-3.7c0-2.082,0.559-4.464,1.289-5.569
				c0.042-0.086,0.042-0.213,0-0.299c-0.043-0.084-0.172-0.127-0.258-0.084c-3.136,0.809-4.253,3.657-4.253,5.868
				c0,3.911,1.977,5.315,3.78,5.315c0.258,0,0.516-0.042,0.772-0.085c3.223-0.638,6.487-4.762,6.487-11.522
				c0-0.683-0.086-1.362-0.302-2.086C106.528,249.741,106.485,249.698,106.485,249.614L106.485,249.614z M102.32,250.039
				c-0.345,0.085-0.688,0.171-1.075,0.256c-0.601,0.128-0.944-0.042-0.944-0.512c0-0.254,0.172-0.467,0.472-0.51h0.172
				C101.417,249.231,101.89,249.529,102.32,250.039L102.32,250.039z"/>
			<path id="Shape_2_" sketch:type="MSShapeGroup" fill="#FFFFFF" d="M68.858,240.301c-0.171,0.043-0.257,0.17-0.3,0.17
				c-1.117,1.318-3.135,2.339-5.455,2.765c-0.43,0.085-0.816,0.127-1.246,0.127c-3.092,0-5.326-2.296-7.645-4.763
				c-0.945-0.979-1.933-2.04-3.007-2.891c9.493-1.829,13.745-7.655,13.745-12.589c0-4.294-3.394-8.929-10.825-8.929
				c-1.202,0-2.491,0.127-3.823,0.382c-8.891,1.659-15.764,8.378-15.764,13.098c0,1.276,0.516,2.297,1.504,3.019
				c1.546,1.107,4.166,1.445,7.688,0.937v1.786c-0.344,0-0.645,0.043-0.945,0.085c-1.589,0.298-2.147,1.02-2.147,1.616
				c0,0.596,0.301,1.02,0.902,1.275c0.515,0.213,1.245,0.34,2.147,0.298c-0.043,4.38-0.172,8.377-0.387,11.907v0.042
				c0,0.638,1.417,2.807,2.534,2.807h0.172c0.172-0.043,0.343-0.128,0.473-0.298c0.043-0.042,0.043-0.084,0.043-0.17
				c0-5.314,0.086-10.248,0.257-14.629l0.945-0.171c0.516,0.427,1.16,1.574,1.89,2.85c2.234,3.827,5.541,9.654,11.297,9.654l0,0
				c0.559,0,1.117-0.043,1.676-0.171c3.479-0.637,5.799-3.444,6.657-7.867C69.245,240.301,69.03,240.258,68.858,240.301
				L68.858,240.301z M47.081,230.818c0.688-0.214,1.632-0.595,2.405-1.148c0.086-0.043,0.129-0.17,0.086-0.255l-0.043-0.171
				c0-0.085-0.086-0.128-0.129-0.17c-0.086-0.043-0.172-0.043-0.215,0c0,0-0.859,0.383-2.018,0.723
				c0.215-3.146,0.472-5.146,0.601-6.378c0.085-0.766,0.128-1.233,0.128-1.53c0-0.171-0.128-0.342-0.472-0.342h-0.13
				c-0.128,0.043-2.705,0.639-3.092,0.766c-0.172,0.043-0.473,0.256-0.473,0.681c-0.043,0.255-0.043,0.724-0.043,1.616v2.084
				c0,1.063,0,2.297,0.043,3.614c-3.737,0.255-6.014-1.021-6.014-3.316c0-3.317,4.682-7.613,12.543-9.101
				c0.773-0.128,1.546-0.213,2.276-0.213c5.154,0,7.861,3.53,7.861,7.017c0,3.359-2.62,7.782-10.008,9.143
				c-0.429,0.085-0.945,0.171-1.546,0.256c-0.688-0.342-1.246-0.596-1.891-0.724L47.081,230.818L47.081,230.818z"/>
			<path id="Shape_3_" sketch:type="MSShapeGroup" fill="#FFFFFF" d="M80.026,236.389c0.258,0,0.516-0.043,0.773-0.085
				c3.222-0.595,6.487-4.764,6.487-11.524c0-0.766-0.086-1.403-0.215-1.871c0.987-0.383,1.718-0.681,2.275-0.766h0.088
				c0.3,0,0.601,0.639,0.601,2.382c0,2.296-0.517,5.57-0.817,7.314c-0.085,0.68-0.172,1.104-0.172,1.317
				c0.044,1.107,1.204,1.573,2.148,1.403c0.859-0.17,1.332-0.765,1.332-1.573c0.815-6.761,2.233-10.631,2.834-11.142
				c0.087,0.298,0.173,1.148,0.173,2.892c0,2.808-0.215,6.677-0.345,7.995v0.085c0,0.213,0.086,0.383,0.302,0.468
				c0.386,0.171,1.202,0.043,1.975-0.085c0.431-0.085,0.731-0.341,0.773-0.681c0.259-0.85,0.603-2.083,0.945-3.359
				c0.516-1.998,1.074-4.167,1.633-5.654c0,0.424-0.044,0.893-0.044,1.402c0,1.828,0.172,3.274,0.473,4.337
				c0.473,1.574,1.331,2.34,2.534,2.34l0,0c0.172,0,0.388,0,0.559-0.044c1.633-0.297,3.222-2.167,3.222-3.741
				c0-0.213-0.128-0.34-0.344-0.34h-0.086c-0.129,0.041-0.216,0.085-0.257,0.085c-0.043,0-0.043,0.042-0.043,0.042
				c-0.559,0.68-1.074,1.063-1.504,1.148c-0.815,0.17-1.46-1.616-1.46-3.742c0-2.254,0.386-5.485,1.245-7.569
				c0.043-0.127,0.043-0.212,0.043-0.298c0-0.638-1.331-1.19-1.847-1.19h-0.13c-0.171,0.042-0.301,0.127-0.429,0.255
				c-1.546,1.743-2.878,5.528-3.908,8.59c-0.174,0.468-0.302,0.893-0.474,1.318c0.086-1.276,0.086-2.978,0.086-5.486
				c0-1.062-0.172-2.254-1.675-2.254c-0.215,0-0.43,0.043-0.645,0.086c-1.029,0.213-2.146,2.253-3.264,6.123v-0.382
				c0-2.977-1.117-4.338-3.266-3.955c-0.858,0.17-1.803,0.595-2.834,1.063c-0.129,0.043-0.258,0.126-0.43,0.169
				c-0.687-1.147-1.847-1.742-3.265-1.742c-0.301,0-0.602,0.043-0.902,0.084c-1.847,0.341-3.736,1.786-3.736,3.572
				c0,0.468,0.172,0.851,0.472,1.148c0.473,0.426,1.203,0.553,2.191,0.383c0.687-0.128,1.417-0.341,2.276-0.595
				c0.301,0.851,0.473,1.913,0.473,3.104c0,4.21-1.804,7.271-3.05,7.484c-0.687,0.128-1.46-0.766-1.46-3.699
				c0-2.085,0.558-4.466,1.289-5.571c0.043-0.085,0.043-0.213,0-0.298s-0.172-0.128-0.258-0.085
				c-3.135,0.808-4.252,3.657-4.252,5.869c0,1.657,0.387,3.061,1.074,3.955C78.008,235.921,78.953,236.389,80.026,236.389
				L80.026,236.389z M82.775,222.951c-0.344,0.084-0.687,0.169-1.074,0.254c-0.129,0.043-0.215,0.043-0.344,0.043l0,0
				c-0.43,0-0.602-0.17-0.602-0.552c0-0.299,0.172-0.469,0.473-0.511h0.172C81.873,222.143,82.346,222.439,82.775,222.951
				L82.775,222.951z"/>
			<path id="Shape_4_" sketch:type="MSShapeGroup" fill="#FFFFFF" d="M74.958,225.375c0-0.086-0.042-0.128-0.042-0.212
				c-0.516-1.744-1.976-2.851-3.78-2.851c-0.301,0-0.602,0.043-0.901,0.085c-1.847,0.341-3.737,1.787-3.737,3.572
				c0,0.468,0.171,0.851,0.472,1.148c0.472,0.426,1.203,0.553,2.191,0.382c0.687-0.126,1.417-0.339,2.276-0.595
				c0.301,0.852,0.473,1.914,0.473,3.104c0,4.254-1.804,7.272-3.007,7.527h-0.129c-0.645,0-1.332-0.978-1.332-3.7
				c0-2.083,0.559-4.464,1.289-5.571c0.043-0.084,0.043-0.212,0-0.297s-0.172-0.127-0.258-0.085
				c-3.136,0.808-4.252,3.656-4.252,5.867c0,3.913,1.976,5.317,3.823,5.317c0.257,0,0.516-0.044,0.774-0.086
				c3.221-0.595,6.486-4.762,6.486-11.523C75.258,226.777,75.173,226.098,74.958,225.375L74.958,225.375z M70.748,225.587
				c-0.343,0.085-0.73,0.171-1.073,0.256c-0.129,0.042-0.215,0.042-0.344,0.042c-0.43,0-0.602-0.169-0.602-0.553
				c0-0.297,0.172-0.468,0.473-0.511h0.172C69.803,224.779,70.319,225.077,70.748,225.587L70.748,225.587z"/>
			<path id="Shape_5_" sketch:type="MSShapeGroup" fill="#FFFFFF" d="M76.633,267.304c4.982-6.848,23.108-26.748,27.447-27.556
				c0.258-0.043,0.431-0.255,0.431-0.553c0-1.701-1.375-2.594-4.038-2.594c-1.246,0-2.792,0.17-4.726,0.553
				c-2.619,0.467-5.455,1.233-8.204,1.956c-2.362,0.595-4.553,1.19-6.314,1.53c-0.988,0.171-1.761,0.298-2.319,0.298
				c-1.074,0-1.074-0.34-1.074-0.468c0-0.298,0.128-0.468,0.3-0.766l0.086-0.127c0.043-0.043,0.043-0.085,0.043-0.128
				c0-0.213-0.129-0.34-0.258-0.426l-0.086-0.042c-0.129-0.127-0.386-0.17-0.559-0.127c-0.085,0-0.171,0.043-0.214,0.084
				c-1.589,0.681-2.706,2.127-2.706,3.488c0,2.125,1.332,3.189,3.909,3.189c0.859,0,1.89-0.128,3.093-0.341
				c2.663-0.51,5.842-1.488,8.891-2.467c3.094-0.978,5.971-1.871,8.42-2.339c0.301-0.042,0.558-0.085,0.815-0.127
				c-0.086,0-0.215,0.127-0.258,0.17c-0.086,0.085-0.172,0.127-0.257,0.213c-0.431,0.297-0.817,0.595-1.204,0.935
				c-0.472,0.383-0.901,0.767-1.374,1.105c-0.473,0.427-0.987,0.808-1.46,1.277c-0.516,0.466-1.03,0.936-1.547,1.402
				c-0.517,0.51-1.073,0.979-1.59,1.488c-0.558,0.51-1.117,1.064-1.675,1.616c-0.559,0.552-1.116,1.105-1.719,1.659
				c-0.557,0.551-1.116,1.104-1.717,1.7c-0.559,0.596-1.16,1.191-1.718,1.743c-0.559,0.596-1.117,1.148-1.675,1.744
				s-1.117,1.146-1.675,1.743c-0.516,0.553-1.074,1.148-1.589,1.743c-0.516,0.553-1.031,1.064-1.503,1.615
				c-1.031,1.107-2.02,2.212-3.007,3.318c-1.031,1.104-1.976,2.211-2.921,3.359c-0.644,0.808-1.332,1.572-1.933,2.38
				c-0.343,0.469-1.031,1.15-0.987,1.787c0,0.171,0.085,0.383,0.257,0.553c0.387,0.511,1.203,0.978,1.675,1.105
				c0.988,0.298,1.934-0.637,2.75-1.062c5.025-2.509,10.738-0.341,15.936,0.255c1.676,0.213,3.351,0.298,5.026,0.171
				c2.146-0.129,4.295-0.681,6.186-1.744c0.514-0.299,0.986-0.596,1.46-0.936c0.688-0.51,1.288-1.063,1.847-1.658
				c0.558-0.639,1.031-1.361,1.332-2.169c0.129-0.34,0.172-0.681,0.172-1.063c0.043-0.765-0.989-0.085-1.246,0.086
				c-0.729,0.425-1.547,0.765-2.362,1.02c-0.816,0.298-1.632,0.553-2.491,0.681c-0.859,0.17-1.719,0.297-2.576,0.383
				c-0.861,0.085-1.72,0.085-2.578,0.127h-0.301c-6.314-0.042-12.457-1.658-18.556,0.724L76.633,267.304L76.633,267.304z"/>
		</g>
	</g>
</g>
</svg>
