<?xml version="1.0" encoding="utf-8"?>
<!-- Generator: Adobe Illustrator 16.0.0, SVG Export Plug-In . SVG Version: 6.00 Build 0)  -->
<!DOCTYPE svg PUBLIC "-//W3C//DTD SVG 1.1//EN" "http://www.w3.org/Graphics/SVG/1.1/DTD/svg11.dtd">
<svg version="1.1" id="Layer_1" xmlns="http://www.w3.org/2000/svg" xmlns:xlink="http://www.w3.org/1999/xlink" x="0px" y="0px"
	 width="866.732px" height="577.821px" viewBox="-259.146 -337.991 866.732 577.821"
	 enable-background="new -259.146 -337.991 866.732 577.821" xml:space="preserve">
<rect x="-259.146" y="-337.991" fill="#FFFFFF" width="866.732" height="577.821"/>
<g>
	<g>
		<g>
			<rect x="-147.724" y="-111.884" fill="#54B948" width="140.647" height="125.606"/>
			<path fill="#FFFFFF" d="M-55.449-13.512L-55.449-13.512c18.699,0,32.926-4.065,32.926-37.804
				c0-25.609-9.349-35.772-28.861-35.772h-81.299v10.569h23.983v63.007h16.26v-62.6h36.178c10.976,0,16.26,5.691,16.26,25.203
				s-4.472,27.235-15.447,27.235h-15.854v-48.779h-16.26v58.942H-55.449"/>
			<path fill="#003F2D" d="M423.808-35.463v-6.91l0,0c-2.439,5.69-6.503,7.723-12.195,7.723c-12.195,0-16.667-9.756-16.667-20.731
				c0-10.569,4.878-19.511,16.26-19.511c4.878,0,8.537,1.625,11.382,5.69l0,0v-21.95h18.699v55.283h-17.479 M418.523-63.104
				c-4.065,0-4.471,4.065-4.471,8.13s0.812,8.536,4.877,8.536s4.472-4.471,4.472-7.723C422.995-59.04,422.589-63.104,418.523-63.104
				z"/>
			<path fill="#003F2D" d="M42.109-86.682h27.235l18.293,51.219H66.905l-3.658-10.975H46.581l-3.251,10.975H23.817L42.109-86.682
				 M49.426-59.04h11.382l-5.691-16.667l0,0L49.426-59.04z"/>
			<path fill="#003F2D" d="M90.482-73.674h17.479v6.504l0,0c2.032-5.285,7.316-7.317,13.008-7.317
				c5.284,0,10.568,2.032,12.195,6.504l0,0c1.219-4.472,7.723-6.504,12.195-6.504c13.414,0,13.414,8.942,13.414,16.26v23.17h-18.699
				v-21.951c0-2.032,0-5.284-3.252-5.284c-3.252,0-3.252,2.845-3.252,5.284v21.951h-18.699v-21.951c0-2.032,0-5.284-3.251-5.284
				c-3.252,0-3.252,2.845-3.252,5.284v21.951H89.669v-38.617"/>
			<path fill="#003F2D" d="M181.943-50.097C182.35-45.219,186.822-44,192.106-44c4.878,0,9.756-0.813,12.601-2.438v9.755
				c-4.877,1.626-10.975,2.033-17.479,2.033c-15.447,0-23.983-7.317-23.983-20.731c0-13.008,8.13-19.511,23.983-19.511
				c15.04,0,19.918,9.349,19.918,22.356v2.439H181.943 M191.293-58.227c0-2.846-0.406-7.724-4.471-7.724s-5.285,4.472-4.878,7.724
				H191.293z"/>
			<path fill="#003F2D" d="M229.91-73.674v8.537l0,0c2.032-5.284,5.69-9.755,11.789-9.755c1.22,0,2.438,0,2.845,0.406v15.447
				c-0.813-0.407-2.439-0.407-4.065-0.407c-5.285,0-9.35,4.472-9.35,10.162v13.821h-18.699v-38.211H229.91"/>
			<path fill="#003F2D" d="M250.235-90.746h18.698v13.007h-18.698V-90.746z M250.235-73.674h18.698v38.211h-18.698V-73.674z"/>
			<path fill="#003F2D" d="M280.316-73.674v-8.943l18.698-5.69v14.633h8.537v10.976h-8.537v10.975c0,3.251,1.626,4.878,4.065,4.878
				c1.626,0,2.845-0.407,4.472-0.813v10.975c-4.065,1.22-8.13,2.033-12.602,2.033c-9.756,0-14.227-4.878-14.227-15.04v-13.008
				h-6.505v-10.976H280.316"/>
			<path fill="#003F2D" d="M329.908-73.674v8.537l0,0c2.032-5.284,6.097-9.755,11.788-9.755c1.22,0,2.438,0,2.845,0.406v15.447
				c-0.813-0.407-2.438-0.407-4.065-0.407c-5.285,0-9.35,4.472-9.35,10.162v13.821h-18.698v-38.211H329.908"/>
			<path fill="#003F2D" d="M350.639-72.454c5.69-1.626,8.943-2.032,16.26-2.032c10.568,0,23.577,2.032,23.577,15.854v23.17h-17.073
				v-5.69l0,0c-2.438,4.471-7.316,6.503-12.601,6.503c-7.317,0-14.227-3.252-14.227-11.382c0-11.788,10.568-14.228,19.918-14.228
				c2.439,0,5.691,0.407,7.317,0.407c0-4.878-5.285-5.691-9.755-5.691c-4.471,0-8.943,1.22-13.008,3.253v-10.163 M373.402-52.129
				h-2.032c-3.659,0-8.13,0.407-8.13,4.472c0,2.845,1.625,3.658,4.471,3.658c3.659,0,5.69-3.658,5.69-6.91V-52.129z"/>
			<path fill="#003F2D" d="M463.645-50.097c0.407,4.877,4.877,6.097,10.162,6.097s9.757-0.813,12.601-2.439v9.755
				c-4.877,1.626-10.975,2.033-17.479,2.033c-15.446,0-23.983-7.317-23.983-20.731c0-13.008,8.13-19.511,23.983-19.511
				c15.042,0,19.918,9.349,19.918,22.356v2.439H463.645 M473.4-58.227c0-2.846-0.407-7.724-4.472-7.724s-5.284,4.472-4.877,7.724
				H473.4z"/>
		</g>
	</g>
	<g id="Layer_2">
		<g>
			<path fill="#003F2D" d="M490.474-85.056c3.251,0,5.69,2.439,5.69,5.691c0,3.252-2.439,5.69-5.69,5.69
				c-3.253,0-5.69-2.438-5.69-5.69C485.188-82.617,487.627-85.056,490.474-85.056z M490.474-74.486c2.439,0,4.471-2.033,4.471-4.878
				c0-2.846-2.031-4.878-4.471-4.878s-4.473,2.032-4.473,4.878C486.001-76.519,488.034-74.486,490.474-74.486z M488.44-82.617h2.439
				c1.626,0,2.44,0.813,2.44,2.033s-0.813,1.626-1.626,1.626l2.031,2.845h-1.218l-2.033-2.845h-1.22v2.845h-1.22v-6.504H488.44z
				 M489.66-79.771h1.22c0.813,0,1.626,0,1.626-1.22c0-0.813-0.813-0.813-1.626-0.813h-1.22V-79.771z"/>
		</g>
	</g>
</g>
</svg>
