<?xml version="1.0" encoding="utf-8"?>
<!-- Generator: Adobe Illustrator 16.0.0, SVG Export Plug-In . SVG Version: 6.00 Build 0)  -->
<!DOCTYPE svg PUBLIC "-//W3C//DTD SVG 1.1//EN" "http://www.w3.org/Graphics/SVG/1.1/DTD/svg11.dtd">
<svg version="1.1" id="Layer_1" xmlns="http://www.w3.org/2000/svg" xmlns:xlink="http://www.w3.org/1999/xlink" x="0px" y="0px"
	 width="767.19px" height="511.46px" viewBox="-0.733 -25.323 767.19 511.46" enable-background="new -0.733 -25.323 767.19 511.46"
	 xml:space="preserve">
<rect x="-0.733" y="-25.323" fill="#0C6BED" width="767.19" height="511.46"/>
<g>
	<path fill="#FFFFFF" d="M419.107,181.385c-14.566,2.53-23.283,19.58-19.84,38.809c3.436,19.229,17.543,32.306,32.107,29.777
		c14.565-2.529,23.283-19.58,19.84-38.809C447.771,191.933,433.672,178.847,419.107,181.385z M428.515,234.016
		c-4.529,0.789-11.228-6.315-13.076-16.639c-1.848-10.33,1.982-19.255,6.512-20.045c4.528-0.789,11.229,6.314,13.076,16.637
		C436.874,224.292,433.044,233.234,428.515,234.016z"/>
	<path fill="#FFFFFF" d="M459.403,147.017c-14.887-15.291-32.592-22.064-49.848-19.067c-17.347,3.014-63.285,20.916-101.483,41.777
		c-30.842,16.851-52.207,32.825-64.028,47.804c-1.013,1.283-2.502,2.125-4.125,2.403l-21.57,3.75
		c-3.82,0.663-7.696-0.656-9.875-3.355l0,0c-7.103-8.825-18.807-12.485-29.812-9.309c-12.592,3.632-20.808,15.184-19.964,28.099
		c0.431,6.609,3.229,12.843,7.883,17.543c2,2.019,2.61,5.076,1.417,7.641c-3.893,8.422-3.273,18.468,2.08,26.629
		c5.328,8.115,14.862,12.771,24.656,12.287c1.192-0.063,2.368-0.188,3.516-0.395c10.063-1.75,18.386-8.727,21.66-18.431
		c1.104-3.273,4.287-5.812,8.117-6.485l21.148-3.678c1.722-0.295,3.372,0.799,3.767,2.486c7.533,32.538,20.915,62.18,39.4,86.925
		c1.094,1.462,3.22,1.731,4.672,0.609l28.414-21.893c0,0,0-0.009-0.009-0.009l3.633-2.799c6.484-4.995,4.26-15.166-3.732-17.094
		l-12.153-2.933c-1.847-0.449-3.417-1.641-4.287-3.31c-3.095-5.973-5.902-12.188-8.413-18.619c-0.941-2.413,1.219-4.879,3.775-4.296
		c8.234,1.875,17.167,3.561,26.826,5.067c43.132,6.727,92.513,8.054,109.86,5.041c17.255-3.006,31.551-15.338,40.233-34.729
		c8.196-18.295,10.448-40.96,6.367-63.83C483.432,181.978,473.448,161.439,459.403,147.017z M231.668,260.84l-6.476,1.131
		c-9.83,1.714-17.821,8.341-20.852,17.311c-1.488,4.412-5.507,7.452-10.26,7.758c-5.453,0.35-10.144-2.889-11.677-8.063
		c-1.004-3.381-0.269-6.161,0.521-7.901c4-8.763,2.188-18.87-4.6-25.75c-1.346-1.363-3.005-3.731-3.229-7.246
		c-0.35-5.373,2.933-10.001,8.179-11.517c0.421-0.125,0.852-0.224,1.273-0.296c4.171-0.726,8.395,0.817,11.059,4.126l0,0
		c5.956,7.41,15.767,10.951,25.597,9.239l6.476-1.131l6.664,4.601l-4.664,6.564l6.665,4.602L231.668,260.84L231.668,260.84z
		 M438.362,289.047c-26.312,4.573-53.614-24.619-60.844-65.078c-7.237-40.458,8.288-77.096,34.603-81.669
		c26.312-4.573,53.614,24.62,60.844,65.078C480.202,247.835,464.677,284.473,438.362,289.047z"/>
	<path fill="#FFFFFF" d="M599.37,188.498l-36.188,6.288l14.115-19.884c1.679-2.368-0.376-5.552-3.265-5.049l-62.861,10.923
		c-3.785,0.654-6.234,4.385-5.185,8.125c0.914,3.265,4.367,5.175,7.749,4.583l35.911-6.241l-14.117,19.882
		c-1.677,2.369,0.378,5.553,3.265,5.05l62.585-10.879c3.382-0.591,5.964-3.552,5.687-6.923
		C606.752,190.516,603.155,187.843,599.37,188.498z"/>
	<path fill="#FFFFFF" d="M488.659,138.864l31.579-17.974l-6.367,23.444c-0.754,2.79,2.277,5.085,4.816,3.642l55.032-31.329
		c2.969-1.694,4.367-5.345,2.951-8.421c-1.632-3.534-5.946-4.834-9.274-2.941l-31.821,18.116l6.367-23.444
		c0.754-2.789-2.278-5.085-4.816-3.64l-55.283,31.461c-3.328,1.893-4.342,6.225-2.056,9.391
		C481.772,139.931,485.682,140.56,488.659,138.864z"/>
	<path fill="#FFFFFF" d="M596.94,278.158l-36.19-6.288l20.171-13.919c2.396-1.659,1.569-5.346-1.317-5.847L516.74,241.17
		c-3.785-0.654-7.381,2.019-7.695,5.884c-0.269,3.372,2.313,6.333,5.686,6.924l35.911,6.242l-20.171,13.92
		c-2.396,1.659-1.569,5.345,1.311,5.849l62.584,10.879c3.382,0.592,6.833-1.327,7.749-4.584
		C603.173,282.544,600.726,278.812,596.94,278.158z"/>
</g>
</svg>
