<?xml version="1.0" encoding="utf-8"?>
<!-- Generator: Adobe Illustrator 16.0.0, SVG Export Plug-In . SVG Version: 6.00 Build 0)  -->
<!DOCTYPE svg PUBLIC "-//W3C//DTD SVG 1.1//EN" "http://www.w3.org/Graphics/SVG/1.1/DTD/svg11.dtd">
<svg version="1.1" id="Layer_1" xmlns="http://www.w3.org/2000/svg" xmlns:xlink="http://www.w3.org/1999/xlink" x="0px" y="0px"
	 width="768.014px" height="460.812px" viewBox="0 0 768.014 460.812" enable-background="new 0 0 768.014 460.812"
	 xml:space="preserve">
<g>
	<path fill="#0C6BED" d="M430.473,172.26c-19.594,3.403-31.32,26.338-26.688,52.204c4.621,25.867,23.599,43.457,43.191,40.055
		s31.319-26.337,26.687-52.204C469.03,186.448,450.065,168.846,430.473,172.26z M443.128,243.056
		c-6.093,1.062-15.104-8.493-17.591-22.381c-2.484-13.896,2.667-25.902,8.76-26.964c6.092-1.061,15.104,8.494,17.59,22.38
		C454.372,229.978,449.221,242.006,443.128,243.056z"/>
	<path fill="#0C6BED" d="M484.679,126.029c-20.027-20.569-43.842-29.68-67.055-25.649c-23.334,4.054-85.129,28.135-136.512,56.197
		c-41.489,22.668-70.227,44.156-86.129,64.305c-1.363,1.725-3.366,2.858-5.549,3.232l-29.016,5.044
		c-5.139,0.892-10.352-0.882-13.284-4.513l0,0c-9.555-11.871-25.299-16.794-40.103-12.522c-16.938,4.886-27.99,20.425-26.855,37.798
		c0.579,8.892,4.343,17.276,10.604,23.599c2.69,2.715,3.511,6.828,1.906,10.278c-5.236,11.329-4.403,24.842,2.798,35.82
		c7.167,10.917,19.992,17.18,33.166,16.528c1.604-0.084,3.185-0.253,4.729-0.531c13.537-2.353,24.733-11.738,29.136-24.792
		c1.485-4.403,5.767-7.818,10.919-8.723l28.448-4.947c2.316-0.397,4.536,1.074,5.067,3.343c10.134,43.771,28.134,83.644,53,116.93
		c1.472,1.967,4.332,2.329,6.285,0.82l38.221-29.449c0,0,0-0.013-0.012-0.013l4.887-3.764c8.722-6.72,5.731-20.401-5.02-22.995
		l-16.348-3.944c-2.484-0.604-4.596-2.208-5.766-4.452c-4.163-8.035-7.939-16.396-11.317-25.046
		c-1.267-3.246,1.64-6.563,5.078-5.779c11.076,2.522,23.092,4.79,36.085,6.816c58.02,9.049,124.446,10.834,147.78,6.781
		c23.212-4.043,42.443-20.631,54.121-46.715c11.026-24.611,14.056-55.099,8.566-85.863C517,173.057,503.571,145.429,484.679,126.029
		z M178.334,279.141l-8.711,1.521c-13.223,2.305-23.973,11.22-28.05,23.285c-2.002,5.936-7.408,10.025-13.802,10.436
		c-7.335,0.471-13.645-3.885-15.708-10.847c-1.351-4.548-0.362-8.288,0.7-10.629c5.381-11.787,2.944-25.383-6.188-34.638
		c-1.81-1.834-4.042-5.019-4.343-9.748c-0.471-7.227,3.945-13.452,11.002-15.491c0.567-0.169,1.146-0.302,1.713-0.398
		c5.611-0.977,11.292,1.098,14.876,5.549l0,0c8.011,9.967,21.209,14.731,34.432,12.428l8.711-1.521l8.964,6.19l-6.273,8.83
		l8.965,6.189L178.334,279.141L178.334,279.141z M456.375,317.084c-35.396,6.152-72.121-33.117-81.846-87.541
		c-9.736-54.423,11.147-103.707,46.546-109.86c35.396-6.152,72.121,33.118,81.846,87.541
		C512.656,261.647,491.772,310.931,456.375,317.084z"/>
	<path fill="#0C6BED" d="M672.959,181.827l-48.681,8.459l18.989-26.748c2.257-3.185-0.506-7.468-4.392-6.792l-84.561,14.694
		c-5.091,0.88-8.385,5.899-6.973,10.93c1.229,4.392,5.875,6.961,10.424,6.165l48.306-8.396l-18.99,26.746
		c-2.256,3.186,0.508,7.469,4.392,6.793l84.188-14.635c4.549-0.796,8.023-4.778,7.649-9.313
		C682.888,184.542,678.05,180.947,672.959,181.827z"/>
	<path fill="#0C6BED" d="M524.033,115.062l42.479-24.178l-8.565,31.536c-1.014,3.753,3.064,6.841,6.479,4.898l74.028-42.142
		c3.993-2.279,5.875-7.19,3.97-11.328c-2.196-4.753-7.999-6.503-12.476-3.957l-42.805,24.37l8.565-31.537
		c1.014-3.752-3.064-6.84-6.479-4.897l-74.366,42.322c-4.476,2.546-5.84,8.373-2.764,12.632
		C514.769,116.497,520.027,117.343,524.033,115.062z"/>
	<path fill="#0C6BED" d="M669.689,302.438l-48.681-8.459l27.134-18.724c3.221-2.231,2.11-7.19-1.773-7.865l-84.562-14.709
		c-5.092-0.88-9.929,2.715-10.352,7.915c-0.361,4.536,3.112,8.518,7.648,9.314l48.307,8.396l-27.134,18.725
		c-3.221,2.232-2.11,7.19,1.763,7.867l84.187,14.634c4.549,0.797,9.192-1.785,10.424-6.166
		C678.074,308.337,674.781,303.317,669.689,302.438z"/>
</g>
</svg>
