<?xml version="1.0" encoding="utf-8"?>
<!-- Generator: Adobe Illustrator 16.0.0, SVG Export Plug-In . SVG Version: 6.00 Build 0)  -->
<!DOCTYPE svg PUBLIC "-//W3C//DTD SVG 1.1//EN" "http://www.w3.org/Graphics/SVG/1.1/DTD/svg11.dtd">
<svg version="1.1"
	 id="svg2" sodipodi:docname="time.svg" inkscape:version="0.91 r13725" xmlns:dc="http://purl.org/dc/elements/1.1/" xmlns:cc="http://creativecommons.org/ns#" xmlns:rdf="http://www.w3.org/1999/02/22-rdf-syntax-ns#" xmlns:sodipodi="http://sodipodi.sourceforge.net/DTD/sodipodi-0.dtd" xmlns:svg="http://www.w3.org/2000/svg" xmlns:inkscape="http://www.inkscape.org/namespaces/inkscape"
	 xmlns="http://www.w3.org/2000/svg" xmlns:xlink="http://www.w3.org/1999/xlink" x="0px" y="0px" width="2309.54px"
	 height="1539.692px" viewBox="-1298.27 -1793.743 2309.54 1539.692" enable-background="new -1298.27 -1793.743 2309.54 1539.692"
	 xml:space="preserve">
<rect x="-1298.27" y="-1793.743" fill="#E90606" width="2309.54" height="1539.692"/>
<title  id="title4166">Time Magazine Logo</title>
<sodipodi:namedview  id="namedview9" fit-margin-right="20" inkscape:window-height="715" inkscape:pageopacity="0" inkscape:window-width="1366" inkscape:pageshadow="2" inkscape:window-x="-8" inkscape:window-maximized="1" inkscape:showpageshadow="false" inkscape:window-y="-8" inkscape:current-layer="svg2" fit-margin-bottom="20" inkscape:cx="1500" showgrid="false" pagecolor="#ffffff" objecttolerance="10" borderopacity="1" fit-margin-top="20" bordercolor="#666666" guidetolerance="10" inkscape:cy="471.60297" inkscape:zoom="0.26933333" gridtolerance="10" fit-margin-left="20">
	</sodipodi:namedview>
<g id="time_logo" transform="matrix(41.572011,0,0,41.572011,19.997187,14.25613)">
	<path id="Fill-1" inkscape:connector-curvature="0" fill="#FFFFFF" d="M-14.482-28.4l-0.76-0.004l-1.177-0.001
		c-0.082,0-0.713,0.005-0.713,0.005l-0.012,0.945l-0.115,0.003l0.008-1.063l-0.004-0.437c0.401,0.018,1.851,0.031,3.356,0.032
		c1.755,0.002,2.885-0.014,3.328-0.026l-0.005,0.484l0.008,1.075l-0.119-0.001c0.001-0.088-0.019-0.444-0.018-0.479
		c0.001-0.013-0.025-0.492-0.029-0.527l-0.503-0.007l-1.509-0.001l-0.579,0.002l-0.003,6.63c0,0.01,0.011,0.435,0.013,0.523
		c0.058,0.008,0.618,0.044,0.718,0.044l0.04-0.001v0.18c-0.03,0-0.068,0.003-0.099,0.003c-0.317-0.004-0.83-0.039-1.195-0.039
		c-0.358-0.001-0.865,0.032-1.239,0.037c-0.01,0.001-0.086-0.002-0.115-0.003l-0.001-0.192c0.004,0.001,0.027,0,0.062-0.002
		c0.158-0.005,0.548-0.029,0.648-0.038l0.017-0.002v-0.567L-14.482-28.4L-14.482-28.4z"/>
	<path id="Fill-3" inkscape:connector-curvature="0" fill="#FFFFFF" d="M-4.817-28.951c0,0,0.566,1.631,0.658,1.871
		c0.092,0.239,1.822,4.368,1.822,4.368s0.815-1.778,1.54-3.686c0.147-0.386,0.34-0.89,0.482-1.298
		c0.208-0.597,0.437-1.252,0.437-1.252h0.446c0,0,0.11,0.729,0.149,1.054c0.113,0.945,0.857,4.784,1.118,6.047
		c0.065,0.316,0.115,0.589,0.115,0.589c0.077,0.005,0.378,0.033,0.557,0.047c0.037,0.003,0.138,0.008,0.16,0.008v0.19
		c0,0-0.08,0.004-0.125,0.004c-0.4-0.003-1.022-0.036-1.407-0.036c-0.341,0-0.67,0.027-1.012,0.033
		c-0.058,0.001-0.116-0.001-0.177-0.001v-0.188c0.002-0.001,0.047-0.003,0.071-0.002c0.168-0.008,0.609-0.047,0.653-0.05
		c0-0.069-0.023-0.308-0.059-0.552c-0.026-0.172-0.067-0.467-0.112-0.758c-0.096-0.565-0.546-2.905-0.679-3.554
		c-0.022-0.107-0.035-0.166-0.035-0.166s-1.397,3.314-1.679,3.966c-0.028,0.065-0.047,0.109-0.054,0.124
		c-0.269,0.629-0.495,1.189-0.495,1.189l-0.397-0.002l-2.172-5.176l-0.052-0.12c0,0-0.19,0.97-0.464,2.338
		c-0.145,0.739-0.446,2.589-0.467,2.711c0.173,0.023,0.514,0.05,0.606,0.047c0.021,0,0.058,0.001,0.084,0.001v0.187
		c-0.038,0.005-0.129,0.005-0.133,0.005c-0.328-0.007-0.565-0.029-0.918-0.029c-0.093,0-0.585,0.023-0.759,0.029
		c-0.071,0.002-0.174-0.006-0.193-0.005v-0.186c0.017,0,0.052-0.007,0.074-0.008c0.157-0.006,0.398-0.029,0.603-0.053
		c0.017-0.091,0.194-1.003,0.251-1.325c0.218-1.069,0.86-4.639,0.941-5.121c0.071-0.52,0.153-1.166,0.16-1.238
		C-5.109-28.945-4.817-28.951-4.817-28.951"/>
	<path id="Fill-6" inkscape:connector-curvature="0" fill="#FFFFFF" d="M-7.709-21.013c-0.295,0-0.795-0.046-1.17-0.046
		c-0.37,0-0.875,0.045-1.236,0.045c-0.031,0-0.085-0.006-0.115-0.006v-0.188c0.071-0.002,0.391-0.029,0.48-0.034
		c0.104-0.008,0.201-0.012,0.244-0.025c0,0,0.001-0.227,0.002-0.579c0.005-1.217,0.014-4.655,0.003-6.211
		c-0.001-0.164-0.002-0.58-0.002-0.64c-0.068-0.007-0.162-0.015-0.231-0.023c-0.085-0.004-0.435-0.035-0.495-0.038l-0.002-0.188
		c0.347,0,0.863,0.033,1.28,0.033c0.4,0,0.942-0.032,1.352-0.032l0.001,0.194c-0.065,0.004-0.223,0.013-0.229,0.014
		c-0.119,0.011-0.455,0.045-0.536,0.051c0,0.117-0.001,0.337-0.001,0.606c-0.002,1.393-0.005,5.038-0.005,6.265
		c0,0.161-0.001,0.308-0.001,0.397c0,0.094,0.001,0.15,0.002,0.154c0.002,0.007,0.212,0.026,0.26,0.028
		c0.092,0.01,0.473,0.026,0.485,0.028h0.026l-0.001,0.188C-7.622-21.02-7.683-21.013-7.709-21.013"/>
	<path id="Fill-8" inkscape:connector-curvature="0" fill="#FFFFFF" d="M4.781-28.371l-0.003,3.12l2.164,0.008
		c0.01,0,0.573-0.016,0.586-0.016c0.034,0,0.42-0.02,0.436-0.026c0,0,0.006-0.033,0.014-0.056C8.01-25.53,8.05-25.708,8.06-25.849
		c0,0,0.01-0.06,0.011-0.101l0.123-0.002c0,0.014,0.006,0.05,0.005,0.101c-0.002,0.188-0.017,0.579-0.017,0.835
		c0.001,0.369,0.011,0.701,0.014,0.868c0.002,0.047-0.001,0.123-0.001,0.123H8.06c-0.002-0.017-0.004-0.036-0.008-0.055
		c-0.023-0.213-0.043-0.363-0.079-0.579c-0.001-0.011-0.008-0.05-0.011-0.075c-0.069-0.005-0.251-0.01-0.348-0.013
		c-0.042-0.001-0.57-0.005-1.162-0.006c-0.243-0.001-0.68,0.01-0.866,0.01c-0.217-0.001-0.576,0.012-0.809,0.02l0.001,2.83
		l0.009,0.364l1.313,0.022l1.871-0.001c0.008,0,0.428-0.015,0.559-0.013c0.028,0.001,0.083-0.004,0.083-0.004
		c0.012-0.091,0.028-0.277,0.043-0.453c0.002-0.021,0.049-0.49,0.049-0.616l0.115-0.001c0,0.119-0.026,1.601-0.026,1.601
		c-0.211-0.001-0.858-0.001-1.658-0.012c-0.484-0.007-1.024-0.008-1.557-0.014c-0.432-0.006-0.859-0.021-1.248-0.02
		c-0.554,0.001-1.097,0.034-1.307,0.034c-0.048,0-0.133-0.003-0.152-0.003v-0.186h0.038c0.131-0.001,0.512-0.021,0.712-0.056
		c0-0.038,0.014-0.499,0.014-0.508c0,0,0.002-5.858,0.003-6.121c0-0.283-0.005-0.755-0.005-0.796
		c-0.113-0.012-0.153-0.019-0.177-0.023c-0.119-0.016-0.355-0.035-0.482-0.044c-0.036,0.001-0.076-0.004-0.095-0.008
		c0,0,0-0.183-0.001-0.186c0.029,0.002,0.087-0.002,0.194-0.002c0.222,0.001,0.633,0.032,1.135,0.032
		c0.315,0.001,0.824-0.014,1.188-0.018c0.519,0,0.913-0.004,1.416-0.007c0.821-0.005,1.522-0.01,1.796-0.011
		c0.08,0,0.124-0.001,0.124-0.001c0,0.014-0.001,0.032-0.001,0.05c0,0.059-0.002,0.162-0.002,0.289
		c0.002,0.394,0.012,1.015,0.012,1.217l-0.115,0.001L8.629-27.44c-0.011-0.138-0.036-0.529-0.068-0.858
		c-0.003-0.029-0.008-0.053-0.008-0.053c-0.069-0.002-0.349-0.011-0.355-0.015c-0.004-0.004-0.228-0.007-0.233-0.009
		c-0.002-0.001-0.736-0.005-1.493-0.007c-0.517-0.001-1.025,0.002-1.337,0.002C5.056-28.38,4.781-28.371,4.781-28.371"/>
</g>
</svg>
