<?xml version="1.0" encoding="utf-8"?>
<!-- Generator: Adobe Illustrator 16.0.0, SVG Export Plug-In . SVG Version: 6.00 Build 0)  -->
<!DOCTYPE svg PUBLIC "-//W3C//DTD SVG 1.1//EN" "http://www.w3.org/Graphics/SVG/1.1/DTD/svg11.dtd">
<svg version="1.1"
	 id="svg2" xmlns:inkscape="http://www.inkscape.org/namespaces/inkscape" xmlns:sodipodi="http://sodipodi.sourceforge.net/DTD/sodipodi-0.dtd" xmlns:dc="http://purl.org/dc/elements/1.1/" xmlns:cc="http://creativecommons.org/ns#" xmlns:rdf="http://www.w3.org/1999/02/22-rdf-syntax-ns#" xmlns:svg="http://www.w3.org/2000/svg" sodipodi:docname="time.svg" inkscape:version="0.91 r13725"
	 xmlns="http://www.w3.org/2000/svg" xmlns:xlink="http://www.w3.org/1999/xlink" x="0px" y="0px" width="2309.54px"
	 height="1539.692px" viewBox="-1298.27 -1793.743 2309.54 1539.692" enable-background="new -1298.27 -1793.743 2309.54 1539.692"
	 xml:space="preserve">
<rect x="-1298.27" y="-1793.743" fill="#E90606" width="2309.54" height="1539.692"/>
<title  id="title4166">Time Magazine Logo</title>
<sodipodi:namedview  id="namedview9" fit-margin-left="20" inkscape:cy="471.60297" guidetolerance="10" gridtolerance="10" pagecolor="#ffffff" inkscape:cx="1500" inkscape:zoom="0.26933333" bordercolor="#666666" fit-margin-top="20" showgrid="false" objecttolerance="10" borderopacity="1" inkscape:pageshadow="2" inkscape:pageopacity="0" inkscape:current-layer="svg2" inkscape:window-y="-8" fit-margin-right="20" inkscape:window-maximized="1" inkscape:showpageshadow="false" inkscape:window-width="1366" inkscape:window-height="715" inkscape:window-x="-8" fit-margin-bottom="20">
	</sodipodi:namedview>
<g id="time_logo" transform="matrix(41.572011,0,0,41.572011,19.997187,14.25613)">
	<path id="Fill-1" inkscape:connector-curvature="0" fill="#FFFFFF" d="M-17.877-29.534l-1.011-0.005l-1.567-0.001
		c-0.109,0-0.949,0.007-0.949,0.007l-0.016,1.258l-0.153,0.004l0.01-1.415l-0.005-0.581c0.534,0.024,2.463,0.041,4.466,0.042
		c2.335,0.002,3.839-0.019,4.429-0.035l-0.007,0.644l0.011,1.43l-0.159-0.001c0.001-0.117-0.025-0.591-0.024-0.638
		c0.001-0.017-0.033-0.655-0.038-0.702l-0.67-0.009l-2.008-0.001l-0.77,0.002l-0.004,8.824c0,0.013,0.014,0.579,0.017,0.696
		c0.077,0.01,0.822,0.058,0.956,0.059l0.053-0.001v0.24c-0.04,0-0.09,0.004-0.132,0.004c-0.422-0.005-1.105-0.052-1.59-0.052
		c-0.477-0.001-1.151,0.043-1.649,0.049c-0.013,0.001-0.115-0.002-0.153-0.004l-0.001-0.256c0.005,0.001,0.036,0,0.083-0.002
		c0.21-0.007,0.729-0.039,0.863-0.05l0.022-0.003v-0.755L-17.877-29.534L-17.877-29.534z"/>
	<path id="Fill-3" inkscape:connector-curvature="0" fill="#FFFFFF" d="M-5.015-30.268c0,0,0.753,2.171,0.876,2.49
		c0.123,0.318,2.425,5.813,2.425,5.813s1.084-2.366,2.049-4.905c0.196-0.514,0.452-1.184,0.641-1.727
		c0.277-0.795,0.581-1.666,0.581-1.666h0.594c0,0,0.147,0.97,0.198,1.403c0.151,1.257,1.14,6.367,1.488,8.048
		c0.086,0.42,0.153,0.784,0.153,0.784c0.102,0.007,0.503,0.044,0.741,0.063c0.049,0.004,0.183,0.01,0.213,0.011v0.253
		c0,0-0.107,0.005-0.167,0.005c-0.532-0.004-1.36-0.048-1.872-0.048c-0.454,0-0.892,0.036-1.347,0.044
		c-0.077,0.001-0.155-0.001-0.235-0.001v-0.25c0.003-0.001,0.063-0.004,0.095-0.003c0.223-0.01,0.811-0.063,0.869-0.066
		c0-0.092-0.031-0.41-0.079-0.735c-0.034-0.229-0.089-0.622-0.149-1.009c-0.128-0.752-0.727-3.866-0.904-4.73
		c-0.029-0.142-0.047-0.221-0.047-0.221s-1.859,4.41-2.234,5.278c-0.037,0.086-0.063,0.145-0.072,0.165
		c-0.358,0.837-0.659,1.582-0.659,1.582l-0.528-0.003l-2.89-6.889l-0.069-0.16c0,0-0.253,1.291-0.618,3.112
		c-0.193,0.984-0.594,3.445-0.621,3.608c0.23,0.031,0.684,0.066,0.807,0.063c0.028,0,0.077,0.001,0.112,0.001v0.249
		c-0.051,0.007-0.172,0.007-0.177,0.007c-0.437-0.009-0.752-0.039-1.222-0.039c-0.124,0-0.779,0.031-1.01,0.038
		C-8.168-19.7-8.304-19.711-8.33-19.71v-0.247c0.022,0,0.069-0.009,0.098-0.01c0.209-0.008,0.53-0.038,0.803-0.071
		c0.022-0.121,0.258-1.335,0.334-1.764c0.29-1.423,1.145-6.174,1.252-6.815c0.094-0.692,0.203-1.552,0.213-1.648
		C-5.404-30.26-5.015-30.268-5.015-30.268"/>
	<path id="Fill-6" inkscape:connector-curvature="0" fill="#FFFFFF" d="M-8.863-19.703c-0.393,0-1.058-0.061-1.557-0.061
		c-0.493,0-1.164,0.06-1.645,0.06c-0.041,0-0.113-0.008-0.153-0.008v-0.25c0.095-0.002,0.521-0.038,0.639-0.045
		c0.139-0.01,0.267-0.016,0.325-0.033c0,0,0.001-0.302,0.003-0.77c0.006-1.619,0.019-6.195,0.004-8.266
		c-0.001-0.218-0.003-0.772-0.003-0.852c-0.09-0.009-0.216-0.02-0.307-0.031c-0.113-0.005-0.579-0.047-0.659-0.051l-0.003-0.25
		c0.462,0,1.148,0.044,1.704,0.044c0.532,0,1.253-0.042,1.799-0.042L-8.715-30c-0.086,0.005-0.297,0.017-0.305,0.018
		c-0.159,0.014-0.605,0.06-0.714,0.068c0,0.156-0.001,0.448-0.001,0.806c-0.002,1.854-0.006,6.705-0.007,8.338
		c0,0.214-0.001,0.41-0.001,0.529c0,0.125,0.001,0.2,0.002,0.205c0.003,0.009,0.282,0.034,0.346,0.037
		c0.123,0.013,0.63,0.034,0.646,0.037h0.034l-0.001,0.25C-8.748-19.712-8.829-19.703-8.863-19.703"/>
	<path id="Fill-8" inkscape:connector-curvature="0" fill="#FFFFFF" d="M7.759-29.495l-0.004,4.152l2.88,0.01
		c0.013,0,0.762-0.021,0.78-0.021c0.045,0,0.559-0.027,0.58-0.034c0,0,0.008-0.044,0.019-0.075c0.042-0.251,0.095-0.489,0.109-0.676
		c0,0,0.013-0.08,0.014-0.134l0.164-0.003c0,0.019,0.008,0.067,0.007,0.135c-0.002,0.25-0.022,0.77-0.022,1.111
		c0.001,0.491,0.015,0.933,0.018,1.155c0.002,0.063-0.002,0.164-0.002,0.164h-0.18c-0.003-0.023-0.006-0.048-0.01-0.073
		c-0.031-0.283-0.057-0.483-0.105-0.771c-0.001-0.015-0.011-0.066-0.015-0.1c-0.092-0.006-0.334-0.013-0.463-0.017
		c-0.056-0.001-0.758-0.007-1.547-0.008c-0.324-0.001-0.905,0.013-1.152,0.013c-0.289-0.001-0.766,0.016-1.076,0.027l0.001,3.766
		l0.012,0.485l1.748,0.029l2.49-0.001c0.011,0,0.57-0.02,0.744-0.017c0.037,0.001,0.111-0.005,0.111-0.005
		c0.016-0.121,0.037-0.368,0.057-0.603c0.002-0.028,0.065-0.652,0.065-0.82l0.153-0.001c0,0.159-0.034,2.131-0.034,2.131
		c-0.281-0.001-1.142-0.001-2.206-0.016c-0.644-0.009-1.363-0.01-2.072-0.019c-0.575-0.008-1.143-0.028-1.661-0.027
		c-0.737,0.001-1.46,0.045-1.74,0.045c-0.064,0-0.177-0.004-0.202-0.004v-0.248h0.051c0.174-0.001,0.682-0.028,0.948-0.074
		c0-0.05,0.018-0.664,0.018-0.676c0,0,0.003-7.796,0.004-8.146c0-0.377-0.007-1.005-0.007-1.06c-0.15-0.016-0.203-0.025-0.235-0.031
		c-0.159-0.021-0.473-0.046-0.641-0.058c-0.048,0.001-0.101-0.005-0.126-0.01c0,0,0-0.244-0.001-0.247
		c0.038,0.002,0.116-0.003,0.258-0.002c0.296,0.001,0.842,0.042,1.51,0.043c0.419,0.001,1.097-0.018,1.581-0.024
		c0.691,0,1.215-0.005,1.885-0.009c1.092-0.006,2.025-0.013,2.39-0.014c0.107,0,0.165-0.001,0.165-0.001
		c0,0.019-0.001,0.042-0.001,0.067c0,0.078-0.003,0.215-0.002,0.384c0.003,0.525,0.016,1.351,0.016,1.62l-0.153,0.001l-0.001-0.074
		c-0.015-0.184-0.048-0.704-0.09-1.142c-0.004-0.039-0.011-0.07-0.011-0.07c-0.092-0.003-0.465-0.014-0.472-0.02
		c-0.006-0.005-0.304-0.009-0.31-0.012c-0.002-0.001-0.98-0.007-1.987-0.009c-0.688-0.001-1.364,0.003-1.779,0.002
		C8.124-29.508,7.759-29.495,7.759-29.495"/>
</g>
</svg>
