<?xml version="1.0" encoding="utf-8"?>
<!-- Generator: Adobe Illustrator 16.0.0, SVG Export Plug-In . SVG Version: 6.00 Build 0)  -->
<!DOCTYPE svg PUBLIC "-//W3C//DTD SVG 1.1//EN" "http://www.w3.org/Graphics/SVG/1.1/DTD/svg11.dtd">
<svg version="1.1"
	 id="svg2" xmlns:inkscape="http://www.inkscape.org/namespaces/inkscape" xmlns:sodipodi="http://sodipodi.sourceforge.net/DTD/sodipodi-0.dtd" xmlns:dc="http://purl.org/dc/elements/1.1/" xmlns:cc="http://creativecommons.org/ns#" xmlns:rdf="http://www.w3.org/1999/02/22-rdf-syntax-ns#" xmlns:svg="http://www.w3.org/2000/svg" sodipodi:docname="time.svg" inkscape:version="0.91 r13725"
	 xmlns="http://www.w3.org/2000/svg" xmlns:xlink="http://www.w3.org/1999/xlink" x="0px" y="0px" width="2309.539px"
	 height="1539.692px" viewBox="-1298.27 -1793.743 2309.539 1539.692"
	 enable-background="new -1298.27 -1793.743 2309.539 1539.692" xml:space="preserve">
<rect x="-1298.27" y="-1793.743" fill="#E90606" width="2309.539" height="1539.692"/>
<title  id="title4166">Time Magazine Logo</title>
<sodipodi:namedview  id="namedview9" fit-margin-left="20" inkscape:cy="471.60297" guidetolerance="10" gridtolerance="10" pagecolor="#ffffff" inkscape:cx="1500" inkscape:zoom="0.26933333" bordercolor="#666666" fit-margin-top="20" showgrid="false" objecttolerance="10" borderopacity="1" inkscape:pageshadow="2" inkscape:pageopacity="0" inkscape:current-layer="svg2" inkscape:window-y="-8" fit-margin-right="20" inkscape:window-maximized="1" inkscape:showpageshadow="false" inkscape:window-width="1366" inkscape:window-height="715" inkscape:window-x="-8" fit-margin-bottom="20">
	</sodipodi:namedview>
<g id="time_logo" transform="matrix(41.572011,0,0,41.572011,19.997187,14.25613)">
	<path id="Fill-1" inkscape:connector-curvature="0" fill="#FFFFFF" d="M-22.554-31.096l-1.357-0.007l-2.103-0.001
		c-0.146,0-1.274,0.01-1.274,0.01l-0.021,1.689l-0.206,0.006l0.013-1.899l-0.007-0.78c0.717,0.032,3.307,0.055,5.995,0.057
		c3.134,0.002,5.153-0.026,5.946-0.047l-0.01,0.864l0.015,1.92l-0.213-0.002c0.001-0.157-0.034-0.794-0.032-0.856
		c0.001-0.023-0.044-0.879-0.051-0.943l-0.9-0.012l-2.696-0.002l-1.033,0.003l-0.005,11.845c0,0.017,0.019,0.777,0.023,0.935
		c0.104,0.014,1.103,0.078,1.284,0.079l0.071-0.001v0.322c-0.054,0-0.121,0.006-0.177,0.005c-0.567-0.007-1.484-0.07-2.135-0.07
		c-0.641-0.001-1.545,0.058-2.213,0.066c-0.018,0.001-0.155-0.003-0.206-0.005l-0.001-0.344c0.007,0.001,0.048,0,0.111-0.003
		c0.282-0.01,0.978-0.053,1.158-0.067l0.029-0.004l0-1.014L-22.554-31.096L-22.554-31.096z"/>
	<path id="Fill-3" inkscape:connector-curvature="0" fill="#FFFFFF" d="M-5.287-32.081c0,0,1.011,2.915,1.176,3.342
		c0.165,0.427,3.256,7.803,3.256,7.803s1.455-3.176,2.751-6.585c0.263-0.69,0.607-1.59,0.861-2.319
		c0.372-1.067,0.78-2.236,0.78-2.236l0.797,0c0,0,0.197,1.302,0.266,1.883c0.203,1.688,1.53,8.547,1.997,10.804
		c0.116,0.564,0.205,1.053,0.205,1.053c0.137,0.009,0.675,0.059,0.995,0.084c0.066,0.005,0.245,0.014,0.286,0.015l0,0.34
		c0,0-0.144,0.007-0.224,0.007c-0.714-0.005-1.826-0.064-2.513-0.065c-0.61,0-1.198,0.048-1.808,0.059
		c-0.104,0.002-0.208-0.002-0.315-0.002v-0.336c0.004-0.001,0.085-0.005,0.128-0.004c0.299-0.013,1.089-0.084,1.167-0.088
		c0-0.123-0.042-0.55-0.106-0.987c-0.045-0.308-0.12-0.835-0.2-1.354c-0.172-1.009-0.976-5.19-1.214-6.35
		c-0.039-0.191-0.063-0.297-0.063-0.297s-2.496,5.92-2.999,7.086c-0.049,0.115-0.084,0.195-0.096,0.222
		c-0.481,1.123-0.885,2.124-0.885,2.124l-0.709-0.004l-3.88-9.248l-0.092-0.215c0,0-0.34,1.733-0.83,4.178
		c-0.259,1.321-0.797,4.625-0.834,4.843c0.309,0.042,0.918,0.089,1.083,0.084c0.038,0,0.103,0.002,0.151,0.002l0,0.334
		c-0.069,0.009-0.231,0.01-0.238,0.009c-0.586-0.012-1.009-0.053-1.641-0.053c-0.166,0-1.046,0.041-1.356,0.051
		c-0.129,0.006-0.312-0.008-0.347-0.007l0-0.331c0.03,0,0.092-0.012,0.131-0.014c0.281-0.011,0.712-0.051,1.078-0.095
		c0.03-0.163,0.347-1.792,0.448-2.368c0.389-1.91,1.537-8.288,1.681-9.148c0.126-0.929,0.273-2.084,0.286-2.212
		C-5.81-32.07-5.287-32.081-5.287-32.081"/>
	<path id="Fill-6" inkscape:connector-curvature="0" fill="#FFFFFF" d="M-10.453-17.899c-0.527,0-1.42-0.082-2.09-0.082
		c-0.662,0-1.562,0.08-2.208,0.08c-0.055,0-0.152-0.011-0.205-0.011l0-0.336c0.128-0.003,0.699-0.051,0.858-0.061
		c0.186-0.013,0.359-0.021,0.436-0.044c0,0,0.002-0.405,0.004-1.034c0.008-2.174,0.025-8.317,0.005-11.096
		c-0.002-0.293-0.004-1.036-0.004-1.144c-0.121-0.012-0.29-0.027-0.412-0.042c-0.152-0.007-0.777-0.063-0.884-0.069l-0.004-0.336
		c0.62,0,1.541,0.059,2.288,0.059c0.714,0,1.682-0.057,2.415-0.057l-0.001,0.351c-0.116,0.007-0.399,0.023-0.409,0.024
		c-0.214,0.019-0.812,0.081-0.958,0.091c0,0.21-0.001,0.601-0.001,1.082c-0.002,2.489-0.008,9.001-0.01,11.193
		c0,0.287-0.001,0.551-0.001,0.71c0,0.168,0.001,0.268,0.003,0.275c0.004,0.012,0.379,0.045,0.465,0.05
		c0.165,0.017,0.846,0.046,0.867,0.05h0.045l-0.001,0.336C-10.299-17.91-10.407-17.898-10.453-17.899"/>
	<path id="Fill-8" inkscape:connector-curvature="0" fill="#FFFFFF" d="M11.86-31.044l-0.006,5.574l3.866,0.014
		c0.018,0,1.023-0.028,1.047-0.028c0.061,0,0.751-0.036,0.778-0.045c0,0,0.011-0.059,0.026-0.101
		c0.057-0.337,0.127-0.657,0.146-0.908c0,0,0.018-0.107,0.019-0.18l0.22-0.004c0,0.026,0.011,0.09,0.01,0.181
		c-0.003,0.336-0.03,1.034-0.029,1.491c0.001,0.659,0.02,1.253,0.024,1.551c0.003,0.085-0.003,0.22-0.003,0.22h-0.241
		c-0.004-0.031-0.008-0.064-0.013-0.098c-0.042-0.38-0.077-0.648-0.141-1.035c-0.002-0.02-0.015-0.089-0.02-0.134
		c-0.123-0.008-0.448-0.018-0.622-0.023c-0.075-0.002-1.018-0.009-2.077-0.011c-0.435-0.001-1.215,0.018-1.546,0.017
		c-0.388-0.001-1.028,0.021-1.445,0.036l0.001,5.055l0.016,0.651l2.347,0.039l3.342-0.001c0.015,0,0.765-0.027,0.999-0.023
		c0.049,0.001,0.149-0.007,0.149-0.007c0.022-0.163,0.05-0.494,0.077-0.81c0.003-0.037,0.087-0.875,0.087-1.101l0.206-0.002
		c0,0.213-0.045,2.861-0.045,2.861c-0.377-0.001-1.533-0.002-2.961-0.022c-0.865-0.012-1.83-0.013-2.782-0.026
		c-0.772-0.011-1.535-0.037-2.23-0.036c-0.99,0.001-1.96,0.06-2.336,0.061c-0.086,0-0.238-0.006-0.271-0.006l0-0.333H8.52
		c0.233-0.001,0.915-0.038,1.272-0.099c0-0.067,0.024-0.891,0.024-0.908c0,0,0.004-10.466,0.005-10.935
		c0-0.506-0.009-1.349-0.009-1.423c-0.201-0.022-0.273-0.034-0.316-0.042c-0.214-0.028-0.635-0.062-0.861-0.078
		C8.57-31.711,8.5-31.719,8.466-31.725c0,0,0-0.327-0.002-0.332c0.051,0.003,0.156-0.004,0.346-0.003
		c0.398,0.002,1.131,0.057,2.027,0.058c0.563,0.001,1.472-0.024,2.122-0.032c0.927,0,1.631-0.007,2.53-0.012
		c1.466-0.008,2.719-0.017,3.209-0.019c0.143,0,0.221-0.001,0.221-0.001c0,0.025-0.001,0.056-0.001,0.09
		c0,0.105-0.004,0.289-0.003,0.516c0.004,0.705,0.022,1.813,0.022,2.175l-0.206,0.001l-0.002-0.099
		c-0.02-0.247-0.065-0.945-0.121-1.533c-0.005-0.052-0.015-0.094-0.015-0.094c-0.123-0.004-0.624-0.019-0.633-0.027
		c-0.008-0.007-0.408-0.012-0.416-0.016c-0.003-0.002-1.316-0.01-2.668-0.012c-0.924-0.001-1.831,0.004-2.388,0.003
		C12.351-31.061,11.86-31.044,11.86-31.044"/>
</g>
</svg>
