<?xml version="1.0" encoding="utf-8"?>
<!-- Generator: Adobe Illustrator 16.0.0, SVG Export Plug-In . SVG Version: 6.00 Build 0)  -->
<!DOCTYPE svg PUBLIC "-//W3C//DTD SVG 1.1//EN" "http://www.w3.org/Graphics/SVG/1.1/DTD/svg11.dtd">
<svg version="1.1"
	 id="svg2" sodipodi:docname="time.svg" inkscape:version="0.91 r13725" xmlns:dc="http://purl.org/dc/elements/1.1/" xmlns:cc="http://creativecommons.org/ns#" xmlns:rdf="http://www.w3.org/1999/02/22-rdf-syntax-ns#" xmlns:sodipodi="http://sodipodi.sourceforge.net/DTD/sodipodi-0.dtd" xmlns:svg="http://www.w3.org/2000/svg" xmlns:inkscape="http://www.inkscape.org/namespaces/inkscape"
	 xmlns="http://www.w3.org/2000/svg" xmlns:xlink="http://www.w3.org/1999/xlink" x="0px" y="0px" width="2309.54px"
	 height="1539.692px" viewBox="-1298.27 -1793.743 2309.54 1539.692" enable-background="new -1298.27 -1793.743 2309.54 1539.692"
	 xml:space="preserve">
<title  id="title4166">Time Magazine Logo</title>
<sodipodi:namedview  id="namedview9" fit-margin-right="20" inkscape:window-height="715" inkscape:pageopacity="0" inkscape:window-width="1366" inkscape:pageshadow="2" inkscape:window-x="-8" inkscape:window-maximized="1" inkscape:showpageshadow="false" inkscape:window-y="-8" inkscape:current-layer="svg2" fit-margin-bottom="20" inkscape:cx="1500" showgrid="false" pagecolor="#ffffff" objecttolerance="10" borderopacity="1" fit-margin-top="20" bordercolor="#666666" guidetolerance="10" inkscape:cy="471.60297" inkscape:zoom="0.26933333" gridtolerance="10" fit-margin-left="20">
	</sodipodi:namedview>
<rect x="-1297.771" y="-1793.743" fill="#4F81F2" width="2308.54" height="1539.691"/>
<g>
	<path fill="#FFFFFF" d="M228.06-1198.524c0,8.209-6.661,14.875-14.875,14.875c-8.209,0-14.864-6.666-14.864-14.875
		s6.655-14.874,14.864-14.874C221.399-1213.398,228.06-1206.733,228.06-1198.524"/>
	<path fill="#FFFFFF" d="M228.06-1156.031c0,8.209-6.661,14.875-14.875,14.875c-8.209,0-14.864-6.666-14.864-14.875
		c0-8.22,6.655-14.875,14.864-14.875C221.399-1170.906,228.06-1164.25,228.06-1156.031"/>
	<path fill="#FFFFFF" d="M228.06-1113.538c0,8.208-6.661,14.863-14.875,14.863c-8.209,0-14.864-6.655-14.864-14.863
		c0-8.22,6.655-14.875,14.864-14.875C221.399-1128.413,228.06-1121.757,228.06-1113.538"/>
	<path fill="#FFFFFF" d="M228.06-1071.045c0,8.209-6.661,14.864-14.875,14.864c-8.209,0-14.864-6.655-14.864-14.864
		c0-8.219,6.655-14.874,14.864-14.874C221.399-1085.919,228.06-1079.264,228.06-1071.045"/>
	<path fill="#FFFFFF" d="M188.118-1091.189c0,8.208-6.66,14.863-14.875,14.863c-8.209,0-14.864-6.655-14.864-14.863
		c0-8.22,6.655-14.875,14.864-14.875C181.458-1106.064,188.118-1099.409,188.118-1091.189"/>
	<path fill="#FFFFFF" d="M146.816-1102.558c0,8.22-6.661,14.875-14.875,14.875c-8.209,0-14.864-6.655-14.864-14.875
		c0-8.209,6.655-14.864,14.864-14.864C140.156-1117.422,146.816-1110.767,146.816-1102.558"/>
	<path fill="#FFFFFF" d="M104.324-1099.356c0,8.219-6.661,14.874-14.875,14.874c-8.209,0-14.864-6.655-14.864-14.874
		c0-8.209,6.655-14.864,14.864-14.864C97.663-1114.22,104.324-1107.565,104.324-1099.356"/>
	<path fill="#FFFFFF" d="M64.439-1082.833c0,8.209-6.66,14.875-14.874,14.875c-8.214,0-14.864-6.666-14.864-14.875
		s6.65-14.875,14.864-14.875C57.779-1097.708,64.439-1091.042,64.439-1082.833"/>
	<path fill="#FFFFFF" d="M35.231-1051.342c0,8.209-6.655,14.864-14.87,14.864s-14.864-6.655-14.864-14.864
		c0-8.219,6.649-14.874,14.864-14.874S35.231-1059.561,35.231-1051.342"/>
	<path fill="#FFFFFF" d="M18.293-1012.386c0,8.209-6.655,14.863-14.869,14.863c-8.214,0-14.864-6.654-14.864-14.863
		c0-8.22,6.65-14.875,14.864-14.875C11.638-1027.261,18.293-1020.606,18.293-1012.386"/>
	<path fill="#FFFFFF" d="M13.99-969.894c0,8.209-6.661,14.864-14.875,14.864c-8.209,0-14.864-6.655-14.864-14.864
		c0-8.219,6.655-14.874,14.864-14.874C7.329-984.768,13.99-978.113,13.99-969.894"/>
	<path fill="#FFFFFF" d="M19.721-927.401c0,8.209-6.661,14.864-14.87,14.864c-8.214,0-14.869-6.655-14.869-14.864
		c0-8.22,6.655-14.875,14.869-14.875C13.061-942.276,19.721-935.621,19.721-927.401"/>
	<path fill="#FFFFFF" d="M37.944-888.95c0,8.209-6.661,14.864-14.875,14.864c-8.209,0-14.864-6.655-14.864-14.864
		c0-8.219,6.655-14.874,14.864-14.874C31.284-903.824,37.944-897.168,37.944-888.95"/>
	<path fill="#FFFFFF" d="M70.375-860.922c0,8.22-6.661,14.875-14.875,14.875c-8.214,0-14.864-6.655-14.864-14.875
		c0-8.208,6.65-14.863,14.864-14.863C63.715-875.786,70.375-869.13,70.375-860.922"/>
	<path fill="#FFFFFF" d="M111.629-849.9c0,8.209-6.66,14.864-14.869,14.864c-8.214,0-14.869-6.655-14.869-14.864
		c0-8.219,6.655-14.874,14.869-14.874C104.969-864.774,111.629-858.119,111.629-849.9"/>
	<path fill="#FFFFFF" d="M153.456-856.88c0,8.209-6.66,14.874-14.869,14.874c-8.214,0-14.869-6.665-14.869-14.874
		s6.655-14.875,14.869-14.875C146.795-871.755,153.456-865.089,153.456-856.88"/>
	<path fill="#FFFFFF" d="M190.328-878.789c0,8.209-6.661,14.875-14.87,14.875c-8.214,0-14.87-6.666-14.87-14.875
		c0-8.208,6.655-14.874,14.87-14.874C183.667-893.663,190.328-886.997,190.328-878.789"/>
	<path fill="#FFFFFF" d="M228.06-1028.552c0,8.209-6.661,14.864-14.875,14.864c-8.209,0-14.864-6.655-14.864-14.864
		c0-8.22,6.655-14.875,14.864-14.875C221.399-1043.427,228.06-1036.772,228.06-1028.552"/>
	<path fill="#FFFFFF" d="M228.06-986.07c0,8.219-6.661,14.874-14.875,14.874c-8.209,0-14.864-6.655-14.864-14.874
		c0-8.209,6.655-14.864,14.864-14.864C221.399-1000.934,228.06-994.279,228.06-986.07"/>
	<path fill="#FFFFFF" d="M228.06-943.578c0,8.22-6.661,14.875-14.875,14.875c-8.209,0-14.864-6.655-14.864-14.875
		c0-8.208,6.655-14.863,14.864-14.863C221.399-958.441,228.06-951.786,228.06-943.578"/>
	<path fill="#FFFFFF" d="M228.06-901.084c0,8.22-6.661,14.875-14.875,14.875c-8.209,0-14.864-6.655-14.864-14.875
		c0-8.209,6.655-14.864,14.864-14.864C221.399-915.949,228.06-909.293,228.06-901.084"/>
	<path fill="#FFFFFF" d="M228.06-858.591c0,8.209-6.661,14.874-14.875,14.874c-8.209,0-14.864-6.665-14.864-14.874
		s6.655-14.875,14.864-14.875C221.399-873.466,228.06-866.8,228.06-858.591"/>
	<path fill="#FFFFFF" d="M-90.736-1067.728c0,8.209-6.655,14.864-14.87,14.864s-14.864-6.655-14.864-14.864
		c0-8.22,6.649-14.875,14.864-14.875S-90.736-1075.948-90.736-1067.728"/>
	<path fill="#FFFFFF" d="M-122.349-1095.64c0,8.22-6.655,14.875-14.87,14.875c-8.208,0-14.864-6.655-14.864-14.875
		c0-8.209,6.655-14.864,14.864-14.864C-129.004-1110.504-122.349-1103.849-122.349-1095.64"/>
	<path fill="#FFFFFF" d="M-163.713-1103.25c0,8.219-6.666,14.874-14.875,14.874s-14.864-6.655-14.864-14.874
		c0-8.209,6.655-14.864,14.864-14.864S-163.713-1111.459-163.713-1103.25"/>
	<path fill="#FFFFFF" d="M-205.476-1095.64c0,8.22-6.661,14.875-14.869,14.875c-8.214,0-14.87-6.655-14.87-14.875
		c0-8.209,6.655-14.864,14.87-14.864C-212.137-1110.504-205.476-1103.849-205.476-1095.64"/>
	<path fill="#FFFFFF" d="M-237.824-1071.045c0,8.209-6.66,14.864-14.874,14.864c-8.209,0-14.864-6.655-14.864-14.864
		c0-8.219,6.655-14.874,14.864-14.874C-244.484-1085.919-237.824-1079.264-237.824-1071.045"/>
	<path fill="#FFFFFF" d="M-75.867-1028.552c0,8.209-6.655,14.864-14.869,14.864c-8.214,0-14.864-6.655-14.864-14.864
		c0-8.22,6.65-14.875,14.864-14.875C-82.522-1043.427-75.867-1036.772-75.867-1028.552"/>
	<path fill="#FFFFFF" d="M-75.867-986.07c0,8.219-6.655,14.874-14.869,14.874c-8.214,0-14.864-6.655-14.864-14.874
		c0-8.209,6.65-14.864,14.864-14.864C-82.522-1000.934-75.867-994.279-75.867-986.07"/>
	<path fill="#FFFFFF" d="M-75.867-943.578c0,8.22-6.655,14.875-14.869,14.875c-8.214,0-14.864-6.655-14.864-14.875
		c0-8.208,6.65-14.863,14.864-14.863C-82.522-958.441-75.867-951.786-75.867-943.578"/>
	<path fill="#FFFFFF" d="M-75.867-901.084c0,8.22-6.655,14.875-14.869,14.875c-8.214,0-14.864-6.655-14.864-14.875
		c0-8.209,6.65-14.864,14.864-14.864C-82.522-915.949-75.867-909.293-75.867-901.084"/>
	<path fill="#FFFFFF" d="M-75.867-858.591c0,8.209-6.655,14.874-14.869,14.874c-8.214,0-14.864-6.665-14.864-14.874
		s6.65-14.875,14.864-14.875C-82.522-873.466-75.867-866.8-75.867-858.591"/>
	<path fill="#FFFFFF" d="M-279.582-1113.538c0,8.208-6.666,14.863-14.875,14.863c-8.209,0-14.864-6.655-14.864-14.863
		c0-8.22,6.655-14.875,14.864-14.875C-286.248-1128.413-279.582-1121.757-279.582-1113.538"/>
	<path fill="#FFFFFF" d="M-279.582-1071.045c0,8.209-6.666,14.864-14.875,14.864c-8.209,0-14.864-6.655-14.864-14.864
		c0-8.219,6.655-14.874,14.864-14.874C-286.248-1085.919-279.582-1079.264-279.582-1071.045"/>
	<path fill="#FFFFFF" d="M-279.582-1028.552c0,8.209-6.666,14.864-14.875,14.864c-8.209,0-14.864-6.655-14.864-14.864
		c0-8.22,6.655-14.875,14.864-14.875C-286.248-1043.427-279.582-1036.772-279.582-1028.552"/>
	<path fill="#FFFFFF" d="M-279.582-986.07c0,8.219-6.666,14.874-14.875,14.874c-8.209,0-14.864-6.655-14.864-14.874
		c0-8.209,6.655-14.864,14.864-14.864C-286.248-1000.934-279.582-994.279-279.582-986.07"/>
	<path fill="#FFFFFF" d="M-279.582-943.578c0,8.22-6.666,14.875-14.875,14.875c-8.209,0-14.864-6.655-14.864-14.875
		c0-8.208,6.655-14.863,14.864-14.863C-286.248-958.441-279.582-951.786-279.582-943.578"/>
	<path fill="#FFFFFF" d="M-279.582-901.084c0,8.22-6.666,14.875-14.875,14.875c-8.209,0-14.864-6.655-14.864-14.875
		c0-8.209,6.655-14.864,14.864-14.864C-286.248-915.949-279.582-909.293-279.582-901.084"/>
	<path fill="#FFFFFF" d="M-279.582-858.591c0,8.209-6.666,14.874-14.875,14.874c-8.209,0-14.864-6.665-14.864-14.874
		s6.655-14.875,14.864-14.875C-286.248-873.466-279.582-866.8-279.582-858.591"/>
	<path fill="#FFFFFF" d="M-594.131-900.371c0,8.22-6.655,14.875-14.869,14.875c-8.214,0-14.87-6.655-14.87-14.875
		c0-8.209,6.655-14.864,14.87-14.864C-600.787-915.235-594.131-908.58-594.131-900.371"/>
	<path fill="#FFFFFF" d="M-613.31-939.882c0,8.209-6.666,14.875-14.875,14.875c-8.209,0-14.864-6.666-14.864-14.875
		c0-8.219,6.655-14.874,14.864-14.874C-619.976-954.756-613.31-948.101-613.31-939.882"/>
	<path fill="#FFFFFF" d="M-618.086-983.928c0,8.209-6.655,14.864-14.875,14.864c-8.209,0-14.864-6.655-14.864-14.864
		c0-8.22,6.655-14.875,14.864-14.875C-624.741-998.803-618.086-992.148-618.086-983.928"/>
	<path fill="#FFFFFF" d="M-608.392-1027.093c0,8.209-6.661,14.875-14.87,14.875c-8.214,0-14.869-6.666-14.869-14.875
		s6.655-14.875,14.869-14.875C-615.052-1041.968-608.392-1035.302-608.392-1027.093"/>
	<path fill="#FFFFFF" d="M-584.857-1064.149c0,8.209-6.661,14.875-14.869,14.875c-8.214,0-14.864-6.666-14.864-14.875
		c0-8.219,6.65-14.874,14.864-14.874C-591.518-1079.023-584.857-1072.368-584.857-1064.149"/>
	<path fill="#FFFFFF" d="M-549.938-1090.822c0,8.219-6.655,14.874-14.869,14.874c-8.214,0-14.87-6.655-14.87-14.874
		c0-8.209,6.655-14.864,14.87-14.864C-556.593-1105.686-549.938-1099.031-549.938-1090.822"/>
	<path fill="#FFFFFF" d="M-507.393-1103.818c0,8.209-6.655,14.864-14.87,14.864c-8.214,0-14.869-6.655-14.869-14.864
		c0-8.219,6.655-14.874,14.869-14.874C-514.048-1118.692-507.393-1112.037-507.393-1103.818"/>
	<path fill="#FFFFFF" d="M-463.503-1101.225c0,8.209-6.661,14.875-14.875,14.875c-8.208,0-14.864-6.666-14.864-14.875
		c0-8.208,6.655-14.874,14.864-14.874C-470.164-1116.099-463.503-1109.433-463.503-1101.225"/>
	<path fill="#FFFFFF" d="M-423.205-1083.285c0,8.209-6.655,14.864-14.869,14.864c-8.214,0-14.87-6.655-14.87-14.864
		c0-8.22,6.655-14.875,14.87-14.875C-429.86-1098.16-423.205-1091.504-423.205-1083.285"/>
	<path fill="#FFFFFF" d="M-391.713-1052.665c0,8.209-6.661,14.875-14.875,14.875c-8.209,0-14.864-6.666-14.864-14.875
		s6.655-14.874,14.864-14.874C-398.374-1067.539-391.713-1060.874-391.713-1052.665"/>
	<path fill="#FFFFFF" d="M-372.067-1013.153c0,8.22-6.661,14.875-14.87,14.875c-8.214,0-14.864-6.655-14.864-14.875
		c0-8.209,6.65-14.864,14.864-14.864C-378.728-1028.017-372.067-1021.362-372.067-1013.153"/>
	<path fill="#FFFFFF" d="M-367.753-969.096c0,8.209-6.661,14.864-14.87,14.864c-8.219,0-14.869-6.655-14.869-14.864
		c0-8.219,6.65-14.874,14.869-14.874C-374.414-983.97-367.753-977.315-367.753-969.096"/>
	<path fill="#FFFFFF" d="M-377.421-926.026c0,8.22-6.661,14.875-14.87,14.875c-8.214,0-14.869-6.655-14.869-14.875
		c0-8.209,6.655-14.864,14.869-14.864C-384.082-940.89-377.421-934.235-377.421-926.026"/>
	<path fill="#FFFFFF" d="M-400.982-888.886c0,8.219-6.666,14.874-14.875,14.874c-8.208,0-14.864-6.655-14.864-14.874
		c0-8.209,6.655-14.864,14.864-14.864C-407.648-903.75-400.982-897.095-400.982-888.886"/>
	<path fill="#FFFFFF" d="M-435.98-862.213c0,8.209-6.666,14.875-14.875,14.875c-8.214,0-14.864-6.666-14.864-14.875
		s6.649-14.874,14.864-14.874C-442.646-877.087-435.98-870.422-435.98-862.213"/>
	<path fill="#FFFFFF" d="M-478.105-849.27c0,8.22-6.655,14.875-14.875,14.875c-8.209,0-14.864-6.655-14.864-14.875
		c0-8.209,6.655-14.875,14.864-14.875C-484.76-864.145-478.105-857.479-478.105-849.27"/>
	<path fill="#FFFFFF" d="M-522.272-851.852c0,8.219-6.661,14.874-14.87,14.874c-8.214,0-14.869-6.655-14.869-14.874
		c0-8.209,6.655-14.864,14.869-14.864C-528.933-866.716-522.272-860.061-522.272-851.852"/>
	<path fill="#FFFFFF" d="M-562.64-869.74c0,8.209-6.66,14.875-14.875,14.875c-8.209,0-14.864-6.666-14.864-14.875
		s6.655-14.874,14.864-14.874C-569.3-884.614-562.64-877.949-562.64-869.74"/>
	<path fill="#FFFFFF" d="M341.55-900.371c0,8.22-6.66,14.875-14.874,14.875c-8.209,0-14.864-6.655-14.864-14.875
		c0-8.209,6.655-14.864,14.864-14.864C334.89-915.235,341.55-908.58,341.55-900.371"/>
	<path fill="#FFFFFF" d="M322.362-939.882c0,8.209-6.655,14.875-14.869,14.875c-8.214,0-14.864-6.666-14.864-14.875
		c0-8.219,6.65-14.874,14.864-14.874C315.707-954.756,322.362-948.101,322.362-939.882"/>
	<path fill="#FFFFFF" d="M317.59-983.928c0,8.209-6.655,14.864-14.869,14.864s-14.869-6.655-14.869-14.864
		c0-8.22,6.655-14.875,14.869-14.875S317.59-992.148,317.59-983.928"/>
	<path fill="#FFFFFF" d="M327.285-1027.093c0,8.209-6.66,14.875-14.869,14.875c-8.214,0-14.869-6.666-14.869-14.875
		s6.655-14.875,14.869-14.875C320.625-1041.968,327.285-1035.302,327.285-1027.093"/>
	<path fill="#FFFFFF" d="M350.82-1064.149c0,8.209-6.661,14.875-14.869,14.875c-8.214,0-14.87-6.666-14.87-14.875
		c0-8.219,6.655-14.874,14.87-14.874C344.159-1079.023,350.82-1072.368,350.82-1064.149"/>
	<path fill="#FFFFFF" d="M385.739-1090.822c0,8.219-6.655,14.874-14.869,14.874c-8.214,0-14.864-6.655-14.864-14.874
		c0-8.209,6.65-14.864,14.864-14.864C379.083-1105.686,385.739-1099.031,385.739-1090.822"/>
	<path fill="#FFFFFF" d="M428.284-1103.818c0,8.209-6.655,14.864-14.869,14.864c-8.214,0-14.864-6.655-14.864-14.864
		c0-8.219,6.65-14.874,14.864-14.874C421.629-1118.692,428.284-1112.037,428.284-1103.818"/>
	<path fill="#FFFFFF" d="M472.173-1101.225c0,8.209-6.661,14.875-14.875,14.875c-8.209,0-14.864-6.666-14.864-14.875
		c0-8.208,6.655-14.874,14.864-14.874C465.512-1116.099,472.173-1109.433,472.173-1101.225"/>
	<path fill="#FFFFFF" d="M512.472-1083.285c0,8.209-6.655,14.864-14.87,14.864s-14.87-6.655-14.87-14.864
		c0-8.22,6.655-14.875,14.87-14.875S512.472-1091.504,512.472-1083.285"/>
	<path fill="#FFFFFF" d="M543.963-1052.665c0,8.209-6.66,14.875-14.874,14.875c-8.214,0-14.864-6.666-14.864-14.875
		s6.65-14.874,14.864-14.874C537.303-1067.539,543.963-1060.874,543.963-1052.665"/>
	<path fill="#FFFFFF" d="M563.609-1013.153c0,8.22-6.66,14.875-14.869,14.875c-8.214,0-14.869-6.655-14.869-14.875
		c0-8.209,6.655-14.864,14.869-14.864C556.949-1028.017,563.609-1021.362,563.609-1013.153"/>
	<path fill="#FFFFFF" d="M567.923-969.096c0,8.209-6.66,14.864-14.869,14.864c-8.214,0-14.869-6.655-14.869-14.864
		c0-8.219,6.655-14.874,14.869-14.874C561.263-983.97,567.923-977.315,567.923-969.096"/>
	<path fill="#FFFFFF" d="M558.255-926.026c0,8.22-6.66,14.875-14.869,14.875c-8.214,0-14.869-6.655-14.869-14.875
		c0-8.209,6.655-14.864,14.869-14.864C551.595-940.89,558.255-934.235,558.255-926.026"/>
	<path fill="#FFFFFF" d="M534.695-888.886c0,8.219-6.661,14.874-14.875,14.874s-14.864-6.655-14.864-14.874
		c0-8.209,6.65-14.864,14.864-14.864S534.695-897.095,534.695-888.886"/>
	<path fill="#FFFFFF" d="M499.691-862.213c0,8.209-6.655,14.875-14.869,14.875s-14.864-6.666-14.864-14.875
		s6.65-14.874,14.864-14.874S499.691-870.422,499.691-862.213"/>
	<path fill="#FFFFFF" d="M457.571-849.27c0,8.22-6.661,14.875-14.87,14.875c-8.214,0-14.869-6.655-14.869-14.875
		c0-8.209,6.655-14.875,14.869-14.875C450.911-864.145,457.571-857.479,457.571-849.27"/>
	<path fill="#FFFFFF" d="M413.404-851.852c0,8.219-6.661,14.874-14.87,14.874c-8.214,0-14.869-6.655-14.869-14.874
		c0-8.209,6.655-14.864,14.869-14.864C406.744-866.716,413.404-860.061,413.404-851.852"/>
	<path fill="#FFFFFF" d="M373.037-869.74c0,8.209-6.661,14.875-14.875,14.875c-8.209,0-14.864-6.666-14.864-14.875
		s6.655-14.874,14.864-14.874C366.376-884.614,373.037-877.949,373.037-869.74"/>
	<path fill="#FFFFFF" d="M-782.693-1180.238c0,8.209-6.66,14.875-14.875,14.875c-8.208,0-14.864-6.666-14.864-14.875
		c0-8.208,6.655-14.874,14.864-14.874C-789.354-1195.112-782.693-1188.446-782.693-1180.238"/>
	<path fill="#FFFFFF" d="M-782.693-1137.745c0,8.209-6.66,14.875-14.875,14.875c-8.208,0-14.864-6.666-14.864-14.875
		s6.655-14.875,14.864-14.875C-789.354-1152.62-782.693-1145.954-782.693-1137.745"/>
	<path fill="#FFFFFF" d="M-782.693-1095.251c0,8.209-6.66,14.874-14.875,14.874c-8.208,0-14.864-6.665-14.864-14.874
		s6.655-14.875,14.864-14.875C-789.354-1110.126-782.693-1103.46-782.693-1095.251"/>
	<path fill="#FFFFFF" d="M-840.055-1110.126c8.214,0,14.869,6.666,14.869,14.875s-6.655,14.864-14.869,14.864
		c-8.214,0-14.87-6.655-14.87-14.864S-848.27-1110.126-840.055-1110.126"/>
	<path fill="#FFFFFF" d="M-740.2-1095.251c0,8.209-6.661,14.874-14.875,14.874c-8.209,0-14.864-6.665-14.864-14.874
		s6.655-14.875,14.864-14.875C-746.861-1110.126-740.2-1103.46-740.2-1095.251"/>
	<path fill="#FFFFFF" d="M-697.708-1095.251c0,8.209-6.661,14.874-14.875,14.874c-8.209,0-14.864-6.665-14.864-14.874
		s6.655-14.875,14.864-14.875C-704.368-1110.126-697.708-1103.46-697.708-1095.251"/>
	<path fill="#FFFFFF" d="M-782.693-1052.759c0,8.209-6.66,14.864-14.875,14.864c-8.208,0-14.864-6.655-14.864-14.864
		c0-8.219,6.655-14.874,14.864-14.874C-789.354-1067.633-782.693-1060.978-782.693-1052.759"/>
	<path fill="#FFFFFF" d="M-782.693-1010.266c0,8.209-6.66,14.864-14.875,14.864c-8.208,0-14.864-6.655-14.864-14.864
		c0-8.22,6.655-14.875,14.864-14.875C-789.354-1025.141-782.693-1018.486-782.693-1010.266"/>
	<path fill="#FFFFFF" d="M-782.693-967.773c0,8.209-6.66,14.863-14.875,14.863c-8.208,0-14.864-6.654-14.864-14.863
		c0-8.22,6.655-14.875,14.864-14.875C-789.354-982.648-782.693-975.993-782.693-967.773"/>
	<path fill="#FFFFFF" d="M-782.693-925.291c0,8.219-6.66,14.874-14.875,14.874c-8.208,0-14.864-6.655-14.864-14.874
		c0-8.209,6.655-14.864,14.864-14.864C-789.354-940.155-782.693-933.5-782.693-925.291"/>
	<path fill="#FFFFFF" d="M-777.633-883.606c0,8.208-6.655,14.874-14.87,14.874c-8.214,0-14.864-6.666-14.864-14.874
		c0-8.209,6.65-14.875,14.864-14.875C-784.289-898.481-777.633-891.815-777.633-883.606"/>
	<path fill="#FFFFFF" d="M-749.574-852.776c0,8.209-6.666,14.874-14.875,14.874c-8.214,0-14.864-6.665-14.864-14.874
		s6.65-14.875,14.864-14.875C-756.24-867.651-749.574-860.985-749.574-852.776"/>
	<path fill="#FFFFFF" d="M-673.763-872.039c0,8.22-6.661,14.875-14.875,14.875c-8.209,0-14.864-6.655-14.864-14.875
		c0-8.209,6.655-14.864,14.864-14.864C-680.424-886.903-673.763-880.248-673.763-872.039"/>
	<path fill="#FFFFFF" d="M-708.667-850.876c0,8.22-6.655,14.875-14.87,14.875c-8.214,0-14.864-6.655-14.864-14.875
		c0-8.208,6.65-14.863,14.864-14.863C-715.322-865.74-708.667-859.084-708.667-850.876"/>
</g>
</svg>
