<?xml version="1.0" encoding="utf-8"?>
<!-- Generator: Adobe Illustrator 16.0.0, SVG Export Plug-In . SVG Version: 6.00 Build 0)  -->
<!DOCTYPE svg PUBLIC "-//W3C//DTD SVG 1.1//EN" "http://www.w3.org/Graphics/SVG/1.1/DTD/svg11.dtd">
<svg version="1.1" id="Layer_1" xmlns="http://www.w3.org/2000/svg" xmlns:xlink="http://www.w3.org/1999/xlink" x="0px" y="0px"
	 width="285.28px" height="185.578px" viewBox="-0.839 12.516 285.28 185.578"
	 enable-background="new -0.839 12.516 285.28 185.578" xml:space="preserve">
<polygon fill="#68E0CE" points="115.5,151.769 118.999,122.717 122.497,93.66 125.994,64.609 129.492,35.558 109.194,13.656 
	78.342,19.417 74.844,48.466 71.35,77.517 67.849,106.575 64.353,135.625 33.51,141.383 2.659,147.142 -0.839,176.196 
	19.459,198.094 50.309,192.335 81.154,186.578 112.005,180.819 "/>
<polygon fill="#EF2929" points="284.442,78.918 276.26,43.936 242.865,44.146 209.467,44.359 176.067,44.568 167.925,65.129 
	159.781,85.695 151.644,106.262 156.433,126.744 143.495,126.823 135.358,147.394 143.539,182.372 176.936,182.164 210.334,181.952 
	243.733,181.74 251.878,161.177 260.022,140.61 268.158,120.043 263.373,99.565 276.304,99.483 "/>
<polygon fill="#CE3473" points="129.316,150.568 135.699,122.012 142.083,93.448 148.466,64.895 154.85,36.337 136.842,12.516 
	105.57,15.164 99.186,43.719 92.805,72.275 86.419,100.837 80.036,129.393 48.772,132.039 17.501,134.686 11.117,163.244 
	29.124,187.062 60.396,184.417 91.661,181.77 122.933,179.125 "/>
<polygon fill="#00FF00" points="250.45,47.044 235.487,14.384 202.798,21.223 170.107,28.061 137.413,34.898 133.516,56.667 
	129.615,78.441 125.723,100.214 134.486,119.337 121.823,121.986 117.931,143.759 132.897,176.417 165.584,169.584 198.277,162.746 
	230.968,155.906 234.867,134.132 238.767,112.358 242.658,90.586 233.898,71.467 246.557,68.815 "/>
</svg>
