<?xml version="1.0" encoding="utf-8"?>
<!-- Generator: Adobe Illustrator 16.0.0, SVG Export Plug-In . SVG Version: 6.00 Build 0)  -->
<!DOCTYPE svg PUBLIC "-//W3C//DTD SVG 1.1//EN" "http://www.w3.org/Graphics/SVG/1.1/DTD/svg11.dtd">
<svg version="1.1" id="Layer_1" xmlns="http://www.w3.org/2000/svg" xmlns:xlink="http://www.w3.org/1999/xlink" x="0px" y="0px"
	 width="261.159px" height="208.757px" viewBox="3.251 -15.029 261.159 208.757"
	 enable-background="new 3.251 -15.029 261.159 208.757" xml:space="preserve">
<polygon fill="#EF2929" points="124.177,132.329 122.881,103.098 121.582,73.858 120.284,44.626 118.988,15.395 95.383,-2.896 
	65.887,7.829 67.185,37.059 68.485,66.292 69.781,95.53 71.078,124.761 41.592,135.483 12.096,146.207 13.394,175.439 
	36.997,193.728 66.491,183.004 95.98,172.284 125.476,161.561 "/>
<polygon fill="#EF2929" points="259.409,47.294 245.62,14.119 212.708,19.784 179.793,25.453 146.878,31.117 142.206,52.732 
	137.531,74.353 132.864,95.974 140.935,115.396 128.186,117.589 123.52,139.213 137.308,172.384 170.22,166.721 203.136,161.054 
	236.05,155.388 240.725,133.769 245.4,112.147 250.066,90.527 241.997,71.106 254.741,68.912 "/>
<polygon opacity="0.4" fill="#E0FF00" points="264.409,58.273 250.62,25.098 217.708,30.764 184.794,36.431 151.877,42.096 
	147.204,63.711 142.531,85.333 137.864,106.954 145.935,126.376 133.186,128.568 128.519,150.191 142.308,183.363 175.22,177.7 
	208.137,172.033 241.049,166.367 245.726,144.748 250.4,123.127 255.066,101.507 246.996,82.085 259.741,79.891 "/>
<polygon opacity="0.4" fill="#E0FF00" points="130.007,122.396 131.638,93.182 133.268,63.958 134.898,34.745 136.53,5.529 
	114.871,-15.029 84.452,-7.306 82.821,21.908 81.192,51.123 79.561,80.345 77.929,109.56 47.518,117.279 17.1,125.003 
	15.469,154.219 37.127,174.774 67.546,167.053 97.958,159.334 128.379,151.612 "/>
<polygon opacity="0.4" fill="#68E0CE" points="119.336,138.839 122.538,109.753 125.739,80.66 128.941,51.577 132.144,22.492 
	111.625,0.796 80.833,6.87 77.631,35.954 74.43,65.039 71.228,94.131 68.025,123.215 37.242,129.286 6.452,135.359 3.251,164.444 
	23.77,186.138 54.56,180.064 85.344,173.995 116.135,167.923 "/>
<polygon opacity="0.4" fill="#68E0CE" points="251.314,31.738 231.213,1.962 200.079,14.051 168.948,26.139 137.811,38.228 
	137.523,60.341 137.234,82.459 136.951,104.576 148.722,122.01 136.662,126.691 136.381,148.811 156.483,178.581 187.615,166.499 
	218.749,154.409 249.882,142.319 250.172,120.202 250.459,98.081 250.741,75.967 238.975,58.537 251.031,53.853 "/>
</svg>
