<?xml version="1.0" encoding="utf-8"?>
<!-- Generator: Adobe Illustrator 16.0.0, SVG Export Plug-In . SVG Version: 6.00 Build 0)  -->
<!DOCTYPE svg PUBLIC "-//W3C//DTD SVG 1.1//EN" "http://www.w3.org/Graphics/SVG/1.1/DTD/svg11.dtd">
<svg version="1.1" id="Layer_1" xmlns="http://www.w3.org/2000/svg" xmlns:xlink="http://www.w3.org/1999/xlink" x="0px" y="0px"
	 width="183.212px" height="137.716px" viewBox="-464.595 12.662 183.212 137.716"
	 enable-background="new -464.595 12.662 183.212 137.716" xml:space="preserve">
<polygon fill="#E94127" points="-281.383,57.924 -290.775,34.817 -314.792,36.919 -338.815,39.02 -362.833,41.121 -367.708,58.35 
	-372.585,75.583 -377.461,92.812 -370.867,109.036 -380.973,109.921 -380.836,107.486 -379.607,85.573 -378.379,63.667 
	-377.151,41.76 -375.922,19.848 -398.036,12.662 -414.221,25.274 -415.449,47.185 -416.677,69.092 -417.906,90.999 -418.15,95.359 
	-425.063,93.113 -447.182,85.924 -463.367,98.536 -464.595,120.443 -442.477,127.63 -420.363,134.818 -398.249,142.003 
	-385.321,131.929 -377.822,150.378 -353.804,148.277 -329.781,146.175 -305.764,144.075 -300.887,126.841 -296.012,109.613 
	-291.136,92.385 -297.732,76.156 -286.259,75.152 "/>
</svg>
