<?xml version="1.0" encoding="utf-8"?>
<!-- Generator: Adobe Illustrator 16.0.0, SVG Export Plug-In . SVG Version: 6.00 Build 0)  -->
<!DOCTYPE svg PUBLIC "-//W3C//DTD SVG 1.1//EN" "http://www.w3.org/Graphics/SVG/1.1/DTD/svg11.dtd">
<svg version="1.1" id="Layer_1" xmlns="http://www.w3.org/2000/svg" xmlns:xlink="http://www.w3.org/1999/xlink" x="0px" y="0px"
	 width="261.176px" height="200.26px" viewBox="0 0 261.176 200.26" enable-background="new 0 0 261.176 200.26"
	 xml:space="preserve">
<polygon fill="#E94127" points="121.819,132.849 118.458,103.782 115.095,74.708 111.733,45.642 108.372,16.575 83.533,0 
	54.87,12.783 58.232,41.849 61.595,70.916 64.956,99.99 68.318,129.056 39.663,141.836 11,154.619 14.362,183.686 39.2,200.26 
	67.863,187.478 96.519,174.698 125.182,161.916 "/>
<polygon fill="#E94127" points="258.16,47.522 251.835,12.158 218.474,10.607 185.111,9.055 151.748,7.503 142.532,27.606 
	133.313,47.713 124.101,67.822 127.804,88.529 114.882,87.928 105.67,108.036 111.995,143.4 145.356,144.952 178.719,146.503 
	212.081,148.055 221.3,127.948 230.52,107.84 239.731,87.733 236.029,67.03 248.947,67.629 "/>
</svg>
