<?xml version="1.0" encoding="utf-8"?>
<!-- Generator: Adobe Illustrator 16.0.0, SVG Export Plug-In . SVG Version: 6.00 Build 0)  -->
<!DOCTYPE svg PUBLIC "-//W3C//DTD SVG 1.1//EN" "http://www.w3.org/Graphics/SVG/1.1/DTD/svg11.dtd">
<svg version="1.1" id="Layer_1" xmlns="http://www.w3.org/2000/svg" xmlns:xlink="http://www.w3.org/1999/xlink" x="0px" y="0px"
	 width="261.176px" height="200.26px" viewBox="0 0 261.176 200.26" enable-background="new 0 0 261.176 200.26"
	 xml:space="preserve">
<g>
	<polygon fill="#00997F" points="107.458,103.782 104.095,74.708 100.733,45.642 97.372,16.575 72.533,0 75.895,29.067 
		79.257,58.133 82.619,87.207 85.981,116.274 89.343,145.341 114.182,161.916 110.819,132.849 	"/>
	<polygon fill="#00806A" points="60.68,158.124 32.024,170.903 3.362,183.686 28.2,200.26 56.863,187.478 85.519,174.698 
		114.182,161.916 89.343,145.341 	"/>
	<polygon fill="#00DFB9" points="60.68,158.124 89.343,145.341 85.981,116.274 82.619,87.207 79.257,58.133 75.895,29.067 72.533,0 
		43.871,12.783 47.232,41.849 50.594,70.916 53.956,99.99 57.318,129.056 28.663,141.836 0,154.619 3.362,183.686 32.024,170.903 	
		"/>
</g>
<polygon fill="#948D00" points="253.783,100.724 261.176,79.879 251.739,45.215 244.348,66.061 "/>
<polygon fill="#867F00" points="244.348,66.061 210.979,67.474 177.606,68.883 183.133,89.182 203.582,88.315 236.951,86.902 
	240.862,101.272 253.783,100.724 "/>
<polygon fill="#948D00" points="183.133,89.182 177.606,68.883 170.213,89.729 "/>
<polygon fill="#867F00" points="188.79,130.006 196.183,109.161 162.814,110.575 129.445,111.989 134.971,132.286 155.422,131.42 
	"/>
<polygon fill="#948D00" points="229.559,107.748 222.159,128.592 214.759,149.438 224.195,184.102 231.595,163.256 238.994,142.411 
	246.387,121.566 240.862,101.272 236.951,86.902 "/>
<polygon fill="#867F00" points="181.392,150.852 148.023,152.266 114.654,153.679 124.091,188.343 157.459,186.929 190.827,185.516 
	224.195,184.102 214.759,149.438 "/>
<polygon fill="#F4E800" points="181.392,150.852 214.759,149.438 222.159,128.592 229.559,107.748 236.951,86.902 203.582,88.315 
	183.133,89.182 170.213,89.729 177.606,68.883 210.979,67.474 244.348,66.061 251.739,45.215 218.371,46.629 185.003,48.042 
	151.634,49.456 144.237,70.297 136.838,91.143 129.445,111.989 162.814,110.575 196.183,109.161 188.79,130.006 155.422,131.42 
	134.971,132.286 122.046,132.833 114.654,153.679 148.023,152.266 "/>
</svg>
