<?xml version="1.0" encoding="utf-8"?>
<!-- Generator: Adobe Illustrator 16.0.0, SVG Export Plug-In . SVG Version: 6.00 Build 0)  -->
<!DOCTYPE svg PUBLIC "-//W3C//DTD SVG 1.1//EN" "http://www.w3.org/Graphics/SVG/1.1/DTD/svg11.dtd">
<svg version="1.1" id="Layer_1" xmlns="http://www.w3.org/2000/svg" xmlns:xlink="http://www.w3.org/1999/xlink" x="0px" y="0px"
	 width="285.28px" height="184.438px" viewBox="-285.281 -224.86 285.28 184.438"
	 enable-background="new -285.281 -224.86 285.28 184.438" xml:space="preserve">
<polygon fill="#68E0CE" points="-168.942,-86.747 -165.443,-115.799 -161.945,-144.856 -158.448,-173.907 -154.95,-202.958 
	-175.249,-224.86 -206.1,-219.1 -209.598,-190.05 -213.092,-160.999 -216.593,-131.942 -220.089,-102.891 -250.932,-97.133 
	-281.783,-91.374 -285.281,-62.321 -264.983,-40.422 -234.133,-46.18 -203.289,-51.938 -172.437,-57.698 "/>
<polygon fill="#EF2929" points="0,-167.446 -8.182,-202.429 -41.578,-202.219 -74.975,-202.006 -108.375,-201.797 
	-116.518,-181.236 -124.662,-160.669 -132.799,-140.103 -128.01,-119.622 -140.947,-119.542 -149.084,-98.971 -140.902,-63.993 
	-107.506,-64.202 -74.107,-64.413 -40.709,-64.625 -32.564,-85.188 -24.42,-105.754 -16.283,-126.321 -21.068,-146.8 
	-8.139,-146.882 "/>
<polygon fill="#CE3473" points="-155.126,-81.862 -148.743,-110.418 -142.359,-138.982 -135.977,-167.536 -129.592,-196.093 
	-147.6,-219.914 -178.872,-217.266 -185.256,-188.711 -191.637,-160.155 -198.023,-131.592 -204.406,-103.038 -235.67,-100.391 
	-266.941,-97.745 -273.325,-69.186 -255.318,-45.368 -224.046,-48.014 -192.781,-50.661 -161.509,-53.305 "/>
<polygon fill="#00FF00" points="-33.992,-191.472 -48.955,-224.132 -81.645,-217.293 -114.336,-210.455 -147.029,-203.618 
	-150.926,-181.849 -154.827,-160.075 -158.719,-138.302 -149.956,-119.178 -162.619,-116.53 -166.511,-94.756 -151.545,-62.1 
	-118.857,-68.932 -86.166,-75.77 -53.475,-82.61 -49.574,-104.383 -45.676,-126.159 -41.783,-147.93 -50.545,-167.049 
	-37.885,-169.701 "/>
</svg>
