<?xml version="1.0" encoding="utf-8"?>
<!-- Generator: Adobe Illustrator 16.0.0, SVG Export Plug-In . SVG Version: 6.00 Build 0)  -->
<!DOCTYPE svg PUBLIC "-//W3C//DTD SVG 1.1//EN" "http://www.w3.org/Graphics/SVG/1.1/DTD/svg11.dtd">
<svg version="1.1" id="Layer_1" xmlns="http://www.w3.org/2000/svg" xmlns:xlink="http://www.w3.org/1999/xlink" x="0px" y="0px"
	 width="281.955px" height="184.565px" viewBox="-501.305 -6.347 281.955 184.565"
	 enable-background="new -501.305 -6.347 281.955 184.565" xml:space="preserve">
<g>
	<polygon fill="none" points="-366.817,105.652 -365.074,91.987 -367.496,85.647 -372.333,72.985 -372.899,75.369 -370.887,96.946 
		-368.297,124.77 -368.008,127.866 -361.938,126.406 -359.112,118.654 	"/>
	<polygon fill="#D8449C" points="-416.989,18.197 -425.87,27.543 -424.087,46.683 -421.773,37.4 	"/>
	<polygon fill="#D8449C" points="-359.112,118.654 -357.048,113.001 -365.074,91.987 -366.817,105.652 	"/>
	<polygon fill="#D8449C" points="-336.139,167.74 -346.285,141.177 -364.339,132.991 -361.938,126.406 -368.008,127.866 
		-368.297,124.77 -370.887,96.946 -372.899,75.369 -375.013,84.294 -380.717,108.347 -386.419,132.404 -392.121,156.464 
		-398.01,155.506 -400.521,165.585 -411.563,166.882 -383.704,171.53 -369.326,156.401 -356.396,178.218 -326.548,171.033 
		-308.975,166.805 -310.12,166.846 	"/>
	<polygon opacity="0.8" fill="#68E0CE" enable-background="new    " points="-380.513,13.168 -378.665,13.476 -378.545,14.76 
		-365.554,25.268 -372.549,53.334 -374.298,60.351 -373.481,69.122 -372.899,75.369 -372.333,72.985 -367.496,85.647 
		-365.074,91.987 -363.932,83.033 -361.047,60.416 -358.162,37.793 -328.311,30.611 -326.879,30.266 -321.514,15.55 -317.108,8.295 
		-341.617,9.136 -364.038,9.907 -394.336,4.986 -394.811,6.988 -388.997,6.305 	"/>
	<polygon opacity="0.8" fill="#68E0CE" enable-background="new    " points="-262.175,151.403 -270.731,165.491 -258.087,165.056 
		-237.322,144.167 -247.776,116.798 -248.687,114.413 -253.607,127.907 	"/>
	<polygon opacity="0.8" fill="#68E0CE" enable-background="new    " points="-455.922,110.152 -440.542,112.716 -436.877,98.01 
		-449.27,95.995 -481.396,90.775 -487.099,114.839 -487.75,126.873 -469.813,124.77 	"/>
	<polygon opacity="0.8" fill="#68E0CE" enable-background="new    " points="-296.69,163.847 -308.975,166.805 -291.14,166.191 
		-296.44,163.787 	"/>
	<polygon fill="#D8449C" points="-378.665,13.476 -380.513,13.168 -378.545,14.76 	"/>
	<polygon opacity="0.8" fill="#68E0CE" enable-background="new    " points="-378.665,13.476 -380.513,13.168 -378.545,14.76 	"/>
	<polygon fill="#D8449C" points="-442.753,121.59 -440.542,112.716 -455.922,110.152 -469.813,124.77 -468.529,124.617 	"/>
	<polygon opacity="0.8" fill="#723E84" enable-background="new    " points="-442.753,121.59 -440.542,112.716 -455.922,110.152 
		-469.813,124.77 -468.529,124.617 	"/>
	<polygon fill="#D8449C" points="-296.44,163.787 -305.096,159.862 -334.715,146.426 -346.285,141.177 -336.139,167.74 
		-310.12,166.846 -308.975,166.805 -296.69,163.847 	"/>
	<polygon opacity="0.8" fill="#723E84" enable-background="new    " points="-296.44,163.787 -305.096,159.862 -334.715,146.426 
		-346.285,141.177 -336.139,167.74 -310.12,166.846 -308.975,166.805 -296.69,163.847 	"/>
	<polygon fill="#D8449C" points="-374.298,60.351 -379.542,81.396 -386.534,109.456 -393.528,137.525 -398.01,155.506 
		-392.121,156.464 -386.419,132.404 -380.717,108.347 -375.013,84.294 -372.899,75.369 -373.481,69.122 	"/>
	<polygon opacity="0.8" fill="#723E84" enable-background="new    " points="-374.298,60.351 -379.542,81.396 -386.534,109.456 
		-393.528,137.525 -398.01,155.506 -392.121,156.464 -386.419,132.404 -380.717,108.347 -375.013,84.294 -372.899,75.369 
		-373.481,69.122 	"/>
	<polygon fill="#D8449C" points="-355.772,109.5 -342.74,88.039 -347.208,86.013 -338.644,62.527 -330.077,39.036 -326.879,30.266 
		-328.311,30.611 -358.162,37.793 -361.047,60.416 -363.932,83.033 -365.074,91.987 -357.048,113.001 	"/>
	<polygon opacity="0.8" fill="#723E84" enable-background="new    " points="-355.772,109.5 -342.74,88.039 -347.208,86.013 
		-338.644,62.527 -330.077,39.036 -326.879,30.266 -328.311,30.611 -358.162,37.793 -361.047,60.416 -363.932,83.033 
		-365.074,91.987 -357.048,113.001 	"/>
	<polygon fill="#FFEC00" points="-395.676,10.639 -394.811,6.988 -414.78,9.334 -416.989,18.197 -407.87,8.604 	"/>
	<polygon fill="#FFEC00" points="-420.686,83.189 -423.277,55.369 -424.087,46.683 -428.766,65.462 -435.758,93.522 -436.877,98.01 
		-419.036,100.908 	"/>
	<polygon fill="#FFEC00" points="-442.117,161.784 -471.329,156.91 -472.589,143.395 -488.505,140.811 -487.75,126.873 
		-494.313,127.645 -501.305,155.705 -477.863,174.667 -452.081,171.64 -426.303,168.613 -411.563,166.882 -412.911,166.656 	"/>
	<polygon fill="#D8449C" points="-398.01,155.506 -424.254,151.243 -456.38,146.028 -472.589,143.395 -471.329,156.91 
		-442.117,161.784 -412.911,166.656 -411.563,166.882 -400.521,165.585 	"/>
	<polygon fill="#E94127" points="-398.01,155.506 -424.254,151.243 -456.38,146.028 -472.589,143.395 -471.329,156.91 
		-442.117,161.784 -412.911,166.656 -411.563,166.882 -400.521,165.585 	"/>
	<polygon fill="#D8449C" points="-420.686,83.189 -419.036,100.908 -417.145,101.215 -411.444,77.158 -405.741,53.103 
		-400.037,29.041 -395.676,10.639 -407.87,8.604 -416.989,18.197 -421.773,37.4 -424.087,46.683 -423.277,55.369 	"/>
	<polygon fill="#E94127" points="-420.686,83.189 -419.036,100.908 -417.145,101.215 -411.444,77.158 -405.741,53.103 
		-400.037,29.041 -395.676,10.639 -407.87,8.604 -416.989,18.197 -421.773,37.4 -424.087,46.683 -423.277,55.369 	"/>
	<polygon opacity="0.8" fill="#68E0CE" enable-background="new    " points="-426.709,115.025 -417.578,116.547 -418.094,111.013 
		-419.036,100.908 -436.877,98.01 -440.542,112.716 	"/>
	<polygon fill="#76D00C" points="-426.709,115.025 -417.578,116.547 -418.094,111.013 -419.036,100.908 -436.877,98.01 
		-440.542,112.716 	"/>
	<polygon opacity="0.8" fill="#68E0CE" enable-background="new    " points="-472.589,143.395 -473.922,129.091 -469.813,124.77 
		-487.75,126.873 -488.505,140.811 	"/>
	<polygon fill="#FFEC00" points="-472.589,143.395 -473.922,129.091 -469.813,124.77 -487.75,126.873 -488.505,140.811 	"/>
	<polygon opacity="0.8" fill="#68E0CE" enable-background="new    " points="-380.513,13.168 -388.997,6.305 -394.811,6.988 
		-395.676,10.639 	"/>
	<polygon fill="#FFEC00" points="-380.513,13.168 -388.997,6.305 -394.811,6.988 -395.676,10.639 	"/>
	<polygon opacity="0.8" fill="#68E0CE" enable-background="new    " points="-374.298,60.351 -372.549,53.334 -365.554,25.268 
		-378.545,14.76 -376.071,41.302 	"/>
	<polygon fill="#76D00C" points="-374.298,60.351 -372.549,53.334 -365.554,25.268 -378.545,14.76 -376.071,41.302 	"/>
	<polygon fill="#D8449C" points="-386.534,109.456 -379.542,81.396 -374.298,60.351 -376.071,41.302 -378.545,14.76 
		-380.513,13.168 -395.676,10.639 -400.037,29.041 -405.741,53.103 -411.444,77.158 -417.145,101.215 -419.036,100.908 
		-418.094,111.013 -417.578,116.547 -426.709,115.025 -440.542,112.716 -442.753,121.59 -468.529,124.617 -469.813,124.77 
		-473.922,129.091 -472.589,143.395 -456.38,146.028 -424.254,151.243 -398.01,155.506 -393.528,137.525 	"/>
	<polygon opacity="0.8" fill="#68E0CE" enable-background="new    " points="-386.534,109.456 -379.542,81.396 -374.298,60.351 
		-376.071,41.302 -378.545,14.76 -380.513,13.168 -395.676,10.639 -400.037,29.041 -405.741,53.103 -411.444,77.158 
		-417.145,101.215 -419.036,100.908 -418.094,111.013 -417.578,116.547 -426.709,115.025 -440.542,112.716 -442.753,121.59 
		-468.529,124.617 -469.813,124.77 -473.922,129.091 -472.589,143.395 -456.38,146.028 -424.254,151.243 -398.01,155.506 
		-393.528,137.525 	"/>
	<polygon fill="#050B21" points="-386.534,109.456 -379.542,81.396 -374.298,60.351 -376.071,41.302 -378.545,14.76 
		-380.513,13.168 -395.676,10.639 -400.037,29.041 -405.741,53.103 -411.444,77.158 -417.145,101.215 -419.036,100.908 
		-418.094,111.013 -417.578,116.547 -426.709,115.025 -440.542,112.716 -442.753,121.59 -468.529,124.617 -469.813,124.77 
		-473.922,129.091 -472.589,143.395 -456.38,146.028 -424.254,151.243 -398.01,155.506 -393.528,137.525 	"/>
	<polygon fill="#FFEC00" points="-219.35,33.962 -248.975,20.525 -278.592,7.089 -308.216,-6.347 -317.108,8.295 -315.604,8.243 
		-289.584,7.348 -284.707,20.115 -268.607,16.24 -252.414,43.562 -255.301,66.187 -266.114,68.789 -258.983,87.459 -258.185,88.804 
		-258.256,89.363 -258.227,89.437 -248.687,114.413 -245.044,104.424 -236.48,80.937 -240.949,78.911 -227.912,57.445 	"/>
	<polygon fill="#FFEC00" points="-291.14,166.191 -275.471,173.296 -270.731,165.491 -284.105,165.95 	"/>
	<polygon fill="#FFEC00" points="-359.112,118.654 -361.938,126.406 -355.445,124.843 	"/>
	<polygon fill="#D8449C" points="-258.185,88.804 -258.983,87.459 -258.256,89.363 	"/>
	<polygon fill="#FFEC00" points="-258.185,88.804 -258.983,87.459 -258.256,89.363 	"/>
	<polygon fill="#D8449C" points="-325.829,119.478 -302.167,118.665 -305.01,111.223 -331.025,112.115 -357.044,113.009 
		-357.048,113.001 -359.112,118.654 -355.445,124.843 -361.938,126.406 -364.339,132.991 -346.285,141.177 -346.594,140.371 	"/>
	<polygon fill="#E94127" points="-325.829,119.478 -302.167,118.665 -305.01,111.223 -331.025,112.115 -357.044,113.009 
		-357.048,113.001 -359.112,118.654 -355.445,124.843 -361.938,126.406 -364.339,132.991 -346.285,141.177 -346.594,140.371 	"/>
	<polygon fill="#D8449C" points="-299.897,55.6 -323.559,56.414 -320.713,63.865 -294.698,62.97 -268.678,62.076 -266.114,68.789 
		-255.301,66.187 -252.414,43.562 -268.607,16.24 -284.707,20.115 -279.132,34.71 	"/>
	<polygon fill="#E94127" points="-299.897,55.6 -323.559,56.414 -320.713,63.865 -294.698,62.97 -268.678,62.076 -266.114,68.789 
		-255.301,66.187 -252.414,43.562 -268.607,16.24 -284.707,20.115 -279.132,34.71 	"/>
	<polygon opacity="0.8" fill="#68E0CE" enable-background="new    " points="-326.879,30.266 -298.456,23.423 -284.707,20.115 
		-289.584,7.348 -315.604,8.243 -317.108,8.295 -321.514,15.55 	"/>
	<polygon fill="#76D00C" points="-326.879,30.266 -298.456,23.423 -284.707,20.115 -289.584,7.348 -315.604,8.243 -317.108,8.295 
		-321.514,15.55 	"/>
	<polygon opacity="0.8" fill="#68E0CE" enable-background="new    " points="-258.256,89.363 -261.071,111.423 -263.956,134.049 
		-266.843,156.663 -296.44,163.787 -291.14,166.191 -284.105,165.95 -270.731,165.491 -262.175,151.403 -253.607,127.907 
		-248.687,114.413 -258.227,89.437 	"/>
	<polygon fill="#76D00C" points="-258.256,89.363 -261.071,111.423 -263.956,134.049 -266.843,156.663 -296.44,163.787 
		-291.14,166.191 -284.105,165.95 -270.731,165.491 -262.175,151.403 -253.607,127.907 -248.687,114.413 -258.227,89.437 	"/>
	<polygon opacity="0.8" fill="#68E0CE" enable-background="new    " points="-258.983,87.459 -266.114,68.789 -269.556,69.618 	"/>
	<polygon fill="#FFEC00" points="-258.983,87.459 -266.114,68.789 -269.556,69.618 	"/>
	<polygon fill="#D8449C" points="-326.879,30.266 -330.077,39.036 -338.644,62.527 -347.208,86.013 -342.74,88.039 -355.772,109.5 
		-357.048,113.001 -357.044,113.009 -331.025,112.115 -305.01,111.223 -302.167,118.665 -325.829,119.478 -346.594,140.371 
		-346.285,141.177 -334.715,146.426 -305.096,159.862 -296.44,163.787 -266.843,156.663 -263.956,134.049 -261.071,111.423 
		-258.256,89.363 -258.983,87.459 -269.556,69.618 -266.114,68.789 -268.678,62.076 -294.698,62.97 -320.713,63.865 
		-323.559,56.414 -299.897,55.6 -279.132,34.71 -284.707,20.115 -298.456,23.423 	"/>
	<polygon opacity="0.8" fill="#68E0CE" enable-background="new    " points="-326.879,30.266 -330.077,39.036 -338.644,62.527 
		-347.208,86.013 -342.74,88.039 -355.772,109.5 -357.048,113.001 -357.044,113.009 -331.025,112.115 -305.01,111.223 
		-302.167,118.665 -325.829,119.478 -346.594,140.371 -346.285,141.177 -334.715,146.426 -305.096,159.862 -296.44,163.787 
		-266.843,156.663 -263.956,134.049 -261.071,111.423 -258.256,89.363 -258.983,87.459 -269.556,69.618 -266.114,68.789 
		-268.678,62.076 -294.698,62.97 -320.713,63.865 -323.559,56.414 -299.897,55.6 -279.132,34.71 -284.707,20.115 -298.456,23.423 	
		"/>
	<polygon fill="#050B21" points="-326.879,30.266 -330.077,39.036 -338.644,62.527 -347.208,86.013 -347.208,86.013 -355.772,109.5 
		-357.048,113.001 -357.044,113.009 -331.025,112.115 -305.01,111.223 -302.167,118.665 -325.829,119.478 -346.594,140.371 
		-346.285,141.177 -334.715,146.426 -305.096,159.862 -296.44,163.787 -266.843,156.663 -263.956,134.049 -261.071,111.423 
		-258.256,89.363 -258.983,87.459 -266.114,68.789 -268.678,62.076 -294.698,62.97 -320.713,63.865 -323.559,56.414 -299.897,55.6 
		-279.132,34.71 -284.707,20.115 -298.456,23.423 	"/>
</g>
</svg>
