<?xml version="1.0" encoding="utf-8"?>
<!-- Generator: Adobe Illustrator 16.0.0, SVG Export Plug-In . SVG Version: 6.00 Build 0)  -->
<!DOCTYPE svg PUBLIC "-//W3C//DTD SVG 1.1//EN" "http://www.w3.org/Graphics/SVG/1.1/DTD/svg11.dtd">
<svg version="1.1" id="Layer_1" xmlns="http://www.w3.org/2000/svg" xmlns:xlink="http://www.w3.org/1999/xlink" x="0px" y="0px"
	 width="217.731px" height="217.881px" viewBox="0 0 217.731 217.881" enable-background="new 0 0 217.731 217.881"
	 xml:space="preserve">
<g>
	<path fill="#E84128" d="M149.715,175.198c-7.593-7.756-11.388-13.778-11.388-18.072c0-0.657,0.491-1.237,1.481-1.732l21.461-10.646
		c0.329-0.162,0.739-0.247,1.234-0.247c0.657,0,2.22,2.514,4.688,7.539c2.959,6.034,7.81,9.047,14.556,9.047h9.868
		c4.77,0,8.924-1.732,12.459-5.206c3.536-3.474,5.304-7.69,5.304-12.649c0-5.62-2.387-10.331-7.152-14.138
		c-2.797-2.15-9.21-5.62-19.24-10.417c-14.637-7.109-24.83-13.806-30.586-20.091c-6.908-7.605-10.358-17.194-10.358-28.768
		c0-13.229,4.208-23.852,12.626-31.87c6.724-6.405,15.189-10.245,25.389-11.534C160.973,9.954,136.12,0,108.941,0
		C48.774,0,0,48.774,0,108.94c0,60.167,48.774,108.94,108.941,108.94c29.64,0,56.51-11.842,76.151-31.047h-3.194
		C168.035,186.834,157.305,182.958,149.715,175.198z M133.132,140.54c0,12.215-4.542,23.189-13.616,32.926
		c-8.255,8.912-19.062,13.368-32.431,13.368c-5.446,0-12.378-1.485-20.795-4.456c-7.099-3.961-12.874-8.499-17.33-13.616
		c-4.127-4.618-6.188-8.417-6.188-11.388c0-0.99,0.495-1.733,1.485-2.229l22.033-10.397c0.328-0.162,0.742-0.328,1.237-0.495
		c0.824,0,1.98,1.594,3.466,4.773c3.961,8.042,9.322,12.061,16.092,12.061c4.951,0,9.117-1.732,12.502-5.206
		c3.381-3.474,5.075-7.69,5.075-12.652V30.874c0-1.652,0.823-2.479,2.476-2.479h23.519c1.647,0,2.476,0.827,2.476,2.476V140.54z"/>
	<path fill="#E84128" d="M190.118,51.665L190.118,51.665c-4.937,0-10.978,1.736-14.428,5.21c-3.455,3.474-5.18,7.687-5.18,12.646
		c0,5.129,2.63,9.427,7.891,12.9c1.811,1.322,8.715,4.711,20.722,10.165c7.317,3.37,13.513,6.908,18.608,10.609
		c-0.743-14.293-3.25-27.795-8.981-40.109C203.25,53.836,195.898,51.665,190.118,51.665z"/>
</g>
</svg>
